<svg width="22" height="18" viewBox="0 0 22 18" fill="none" xmlns="http://www.w3.org/2000/svg">
<mask id="path-1-inside-1_1811_122" fill="white">
<path d="M0.00031662 14.4722C0.0341263 13.0261 0.653957 11.9443 1.98378 11.2599C2.54727 10.9729 3.09949 10.6638 3.64043 10.3327C5.06042 9.46059 6.27755 8.38982 6.97627 6.84437C7.51721 5.65218 7.66372 4.37167 7.77642 3.09116C7.93419 1.35805 9.38799 0.0113108 11.0784 0.000271973C12.7689 -0.0218058 14.2452 1.30286 14.4481 3.02492C14.5157 3.58791 14.5044 4.16193 14.6171 4.72491C15.2032 7.65021 16.7922 9.86903 19.6096 11.0943C21.0747 11.7346 21.841 12.7502 21.9875 14.2735C22.134 15.8852 20.9733 17.53 19.3955 17.9053C17.7388 18.3027 16.116 17.4196 15.4624 15.8079C15.2933 15.3774 15.1243 14.9469 14.8651 14.5716C13.817 13.0151 12.3181 12.1982 10.4248 12.4411C8.50895 12.695 7.17912 13.7768 6.57056 15.6313C6.01834 17.2982 4.48566 18.2144 2.70505 17.9384C1.1611 17.6845 -0.0222225 16.1943 0.00031662 14.4722Z"/>
</mask>
<path d="M0.00031662 14.4722C0.0341263 13.0261 0.653957 11.9443 1.98378 11.2599C2.54727 10.9729 3.09949 10.6638 3.64043 10.3327C5.06042 9.46059 6.27755 8.38982 6.97627 6.84437C7.51721 5.65218 7.66372 4.37167 7.77642 3.09116C7.93419 1.35805 9.38799 0.0113108 11.0784 0.000271973C12.7689 -0.0218058 14.2452 1.30286 14.4481 3.02492C14.5157 3.58791 14.5044 4.16193 14.6171 4.72491C15.2032 7.65021 16.7922 9.86903 19.6096 11.0943C21.0747 11.7346 21.841 12.7502 21.9875 14.2735C22.134 15.8852 20.9733 17.53 19.3955 17.9053C17.7388 18.3027 16.116 17.4196 15.4624 15.8079C15.2933 15.3774 15.1243 14.9469 14.8651 14.5716C13.817 13.0151 12.3181 12.1982 10.4248 12.4411C8.50895 12.695 7.17912 13.7768 6.57056 15.6313C6.01834 17.2982 4.48566 18.2144 2.70505 17.9384C1.1611 17.6845 -0.0222225 16.1943 0.00031662 14.4722Z" fill="#002541" stroke="#002541" stroke-width="2" mask="url(#path-1-inside-1_1811_122)"/>
</svg>
