<svg xmlns="http://www.w3.org/2000/svg" xmlns:xlink="http://www.w3.org/1999/xlink" viewBox="0 0 1417.32 1417.32"><defs><style>.cls-1{fill:none;}.cls-2{isolation:isolate;}.cls-3{fill:#fff;}.cls-4{fill:#d3e8bf;}.cls-5{fill:#005832;}.cls-6{clip-path:url(#clip-path);}.cls-7{clip-path:url(#clip-path-2);}.cls-8{fill:url(#linear-gradient);}.cls-9{clip-path:url(#clip-path-3);}.cls-10{opacity:0.3;}.cls-11{clip-path:url(#clip-path-4);}.cls-12{fill:#85c441;fill-rule:evenodd;}.cls-13{clip-path:url(#clip-path-5);}.cls-14{clip-path:url(#clip-path-6);}.cls-15{clip-path:url(#clip-path-7);}.cls-16{clip-path:url(#clip-path-8);}.cls-17{clip-path:url(#clip-path-9);}.cls-18{clip-path:url(#clip-path-10);}.cls-19{clip-path:url(#clip-path-11);}.cls-20{clip-path:url(#clip-path-12);}.cls-21{clip-path:url(#clip-path-13);}.cls-22{clip-path:url(#clip-path-14);}.cls-23{clip-path:url(#clip-path-15);}.cls-24{clip-path:url(#clip-path-16);}.cls-25{clip-path:url(#clip-path-17);}.cls-26{clip-path:url(#clip-path-18);}.cls-27{clip-path:url(#clip-path-19);}.cls-28{clip-path:url(#clip-path-20);}.cls-29{clip-path:url(#clip-path-21);}.cls-30{clip-path:url(#clip-path-22);}.cls-31{clip-path:url(#clip-path-23);}.cls-32{clip-path:url(#clip-path-24);}.cls-33{clip-path:url(#clip-path-25);}.cls-34{clip-path:url(#clip-path-26);}.cls-35{clip-path:url(#clip-path-27);}.cls-36{clip-path:url(#clip-path-28);}.cls-37{clip-path:url(#clip-path-29);}.cls-38{clip-path:url(#clip-path-30);}.cls-39{clip-path:url(#clip-path-31);}.cls-40{fill:#089948;}.cls-41{clip-path:url(#clip-path-32);}.cls-42{clip-path:url(#clip-path-33);}.cls-43{clip-path:url(#clip-path-34);}.cls-44{clip-path:url(#clip-path-35);}.cls-45{clip-path:url(#clip-path-36);}.cls-46{clip-path:url(#clip-path-37);}.cls-47{clip-path:url(#clip-path-38);}.cls-48{clip-path:url(#clip-path-39);}.cls-49{clip-path:url(#clip-path-40);}.cls-50{clip-path:url(#clip-path-41);}.cls-51{clip-path:url(#clip-path-42);}.cls-52{clip-path:url(#clip-path-43);}.cls-53{clip-path:url(#clip-path-44);}.cls-54{clip-path:url(#clip-path-45);}.cls-55{clip-path:url(#clip-path-46);}.cls-56{clip-path:url(#clip-path-47);}.cls-57{clip-path:url(#clip-path-48);}.cls-58{clip-path:url(#clip-path-49);}.cls-59{clip-path:url(#clip-path-50);}.cls-60{clip-path:url(#clip-path-51);}.cls-61{clip-path:url(#clip-path-52);}.cls-62{clip-path:url(#clip-path-53);}.cls-63{clip-path:url(#clip-path-54);}.cls-64{clip-path:url(#clip-path-55);}.cls-65{clip-path:url(#clip-path-56);}.cls-66{clip-path:url(#clip-path-57);}.cls-67{clip-path:url(#clip-path-58);}.cls-68{clip-path:url(#clip-path-59);}.cls-69{clip-path:url(#clip-path-60);}.cls-70{clip-path:url(#clip-path-61);}.cls-71{clip-path:url(#clip-path-62);}.cls-72{clip-path:url(#clip-path-63);}.cls-73{clip-path:url(#clip-path-64);}.cls-74{clip-path:url(#clip-path-65);}.cls-75{clip-path:url(#clip-path-66);}.cls-76{clip-path:url(#clip-path-67);}.cls-77{clip-path:url(#clip-path-68);}.cls-78{clip-path:url(#clip-path-69);}.cls-79{clip-path:url(#clip-path-71);}.cls-80{clip-path:url(#clip-path-72);}.cls-81{clip-path:url(#clip-path-73);}.cls-82{clip-path:url(#clip-path-74);}.cls-83{clip-path:url(#clip-path-75);}.cls-84{clip-path:url(#clip-path-76);}.cls-85{clip-path:url(#clip-path-77);}.cls-86{clip-path:url(#clip-path-78);}.cls-87{clip-path:url(#clip-path-79);}.cls-88{clip-path:url(#clip-path-80);}.cls-89{clip-path:url(#clip-path-81);}.cls-90{clip-path:url(#clip-path-82);}.cls-91{clip-path:url(#clip-path-83);}.cls-92{clip-path:url(#clip-path-84);}.cls-93{clip-path:url(#clip-path-85);}.cls-94{clip-path:url(#clip-path-86);}.cls-95{clip-path:url(#clip-path-87);}.cls-96{clip-path:url(#clip-path-88);}.cls-97{clip-path:url(#clip-path-89);}.cls-98{clip-path:url(#clip-path-90);}.cls-99{fill:url(#linear-gradient-2);}.cls-100{clip-path:url(#clip-path-91);}.cls-101{clip-path:url(#clip-path-92);}.cls-102{fill:url(#linear-gradient-3);}.cls-103{clip-path:url(#clip-path-93);}.cls-104{clip-path:url(#clip-path-94);}.cls-105{fill:url(#linear-gradient-4);}.cls-106{clip-path:url(#clip-path-95);}.cls-107{clip-path:url(#clip-path-96);}.cls-108{fill:url(#linear-gradient-5);}.cls-109{clip-path:url(#clip-path-97);}.cls-110{clip-path:url(#clip-path-98);}.cls-111{fill:url(#linear-gradient-6);}.cls-112{clip-path:url(#clip-path-99);}.cls-113{clip-path:url(#clip-path-100);}.cls-114{fill:url(#linear-gradient-7);}.cls-115{fill:#00672b;}.cls-116{opacity:0.5;mix-blend-mode:multiply;}.cls-117{clip-path:url(#clip-path-101);}</style><clipPath id="clip-path"><path class="cls-1" d="M482.54,868c-9.87,0-4.69,9.78-4.69,9.78h0l41.59,112.71s2.5,6.09,8.86,2.68h0c55.68-29.89,121-47.34,190.9-47.34h0c5.18,0,10.34.14,15.47.31h0c.82,0,1.66.06,2.48.09h0l2.15.1h0c1.94.09,3.87.21,5.77.31h0c62,3.83,116.24,19.61,165.7,47.4h0c5.45,3,8-1.5,8.69-3.16h0c.68-1.64,42-114,42.22-114.77h0c1.39-3.73,2.31-8.13-8.89-8.13h0l-470.25,0"/></clipPath><clipPath id="clip-path-2"><rect class="cls-1" x="471.71" y="868.42" width="491.34" height="129.28"/></clipPath><linearGradient id="linear-gradient" x1="-0.01" x2="1" gradientTransform="matrix(486, 0, 0, -486, 475, 931.9)" gradientUnits="userSpaceOnUse"><stop offset="0" stop-color="#055934"/><stop offset="0.22" stop-color="#066036"/><stop offset="0.54" stop-color="#0b733c"/><stop offset="0.92" stop-color="#119346"/><stop offset="1" stop-color="#139b48"/></linearGradient><clipPath id="clip-path-3"><path class="cls-1" d="M647.66,520.74C637,525.79,637,540.31,637,540.31h0l3.83,190.5s.73,4.9,5.3,3.87h0c10.86-2.55,35.46-8.28,41.24-9.3h0c7.43-1.32,8.1-.24,11.14,2.14h0c1.67,1.29,15.42,13.38,20,16.92h0V489.53c-8.22,3.59-61.06,26.59-70.84,31.21"/></clipPath><clipPath id="clip-path-4"><rect class="cls-1" x="695.63" y="489.53" width="22.86" height="90.87"/></clipPath><clipPath id="clip-path-5"><rect class="cls-1" x="637.04" y="664.86" width="44.81" height="79.57"/></clipPath><clipPath id="clip-path-6"><rect class="cls-1" x="637.04" y="508.25" width="81.45" height="193.76"/></clipPath><clipPath id="clip-path-7"><rect class="cls-1" x="637.04" y="585.48" width="81.45" height="158.95"/></clipPath><clipPath id="clip-path-8"><rect class="cls-1" x="685.68" y="489.53" width="32.82" height="107.24"/></clipPath><clipPath id="clip-path-9"><rect class="cls-1" x="637.04" y="677.28" width="23.12" height="67.15"/></clipPath><clipPath id="clip-path-10"><rect class="cls-1" x="637.04" y="510.95" width="81.45" height="199.99"/></clipPath><clipPath id="clip-path-11"><rect class="cls-1" x="637.04" y="595.75" width="81.45" height="148.68"/></clipPath><clipPath id="clip-path-12"><rect class="cls-1" x="676.78" y="489.53" width="41.72" height="128.26"/></clipPath><clipPath id="clip-path-13"><rect class="cls-1" x="637.04" y="691.63" width="5.39" height="52.8"/></clipPath><clipPath id="clip-path-14"><rect class="cls-1" x="637.04" y="512.87" width="81.45" height="206.07"/></clipPath><clipPath id="clip-path-15"><rect class="cls-1" x="637.04" y="605.24" width="81.45" height="139.19"/></clipPath><clipPath id="clip-path-16"><rect class="cls-1" x="668.52" y="489.53" width="49.98" height="147.56"/></clipPath><clipPath id="clip-path-17"><rect class="cls-1" x="637.04" y="513.89" width="81.45" height="212.29"/></clipPath><clipPath id="clip-path-18"><rect class="cls-1" x="637.04" y="614.17" width="81.45" height="130.26"/></clipPath><clipPath id="clip-path-19"><rect class="cls-1" x="660.62" y="490.06" width="57.87" height="163.51"/></clipPath><clipPath id="clip-path-20"><rect class="cls-1" x="637.04" y="531.51" width="81.45" height="201.01"/></clipPath><clipPath id="clip-path-21"><rect class="cls-1" x="637.04" y="623.42" width="81.45" height="121.01"/></clipPath><clipPath id="clip-path-22"><rect class="cls-1" x="653.05" y="495.16" width="65.44" height="172.88"/></clipPath><clipPath id="clip-path-23"><rect class="cls-1" x="637.04" y="547.54" width="81.45" height="190.28"/></clipPath><clipPath id="clip-path-24"><rect class="cls-1" x="637.04" y="632.91" width="81.45" height="111.53"/></clipPath><clipPath id="clip-path-25"><rect class="cls-1" x="645.04" y="500.23" width="73.46" height="180.45"/></clipPath><clipPath id="clip-path-26"><rect class="cls-1" x="637.04" y="561.54" width="81.45" height="180.58"/></clipPath><clipPath id="clip-path-27"><rect class="cls-1" x="637.04" y="642.95" width="77.66" height="101.48"/></clipPath><clipPath id="clip-path-28"><rect class="cls-1" x="637.04" y="504.63" width="81.45" height="187.33"/></clipPath><clipPath id="clip-path-29"><rect class="cls-1" x="637.04" y="574.08" width="81.45" height="170.36"/></clipPath><clipPath id="clip-path-30"><rect class="cls-1" x="707.71" y="489.53" width="10.79" height="77.21"/></clipPath><clipPath id="clip-path-31"><rect class="cls-1" x="637.04" y="653.46" width="71.02" height="90.98"/></clipPath><clipPath id="clip-path-32"><path class="cls-1" d="M721.29,744.11c4.54-3.53,18.29-15.3,20-16.59h0c3-2.38,3.71-3.46,11.13-2.14h0c5.78,1,30.39,6.75,41.24,9.3h0c4.58,1,5.3-3.87,5.3-3.87h0l3.84-190.5s0-14.52-10.63-19.57h0c-9.78-4.62-62.59-27.62-70.85-31.21h0Z"/></clipPath><clipPath id="clip-path-33"><rect class="cls-1" x="721.29" y="489.53" width="22.88" height="90.87"/></clipPath><clipPath id="clip-path-34"><rect class="cls-1" x="757.95" y="664.86" width="44.82" height="79.25"/></clipPath><clipPath id="clip-path-35"><rect class="cls-1" x="721.29" y="508.25" width="81.48" height="193.76"/></clipPath><clipPath id="clip-path-36"><rect class="cls-1" x="721.29" y="585.48" width="81.48" height="158.63"/></clipPath><clipPath id="clip-path-37"><rect class="cls-1" x="721.29" y="489.53" width="32.83" height="107.24"/></clipPath><clipPath id="clip-path-38"><rect class="cls-1" x="779.64" y="677.28" width="23.13" height="66.83"/></clipPath><clipPath id="clip-path-39"><rect class="cls-1" x="721.29" y="510.95" width="81.48" height="199.99"/></clipPath><clipPath id="clip-path-40"><rect class="cls-1" x="721.29" y="595.75" width="81.48" height="148.36"/></clipPath><clipPath id="clip-path-41"><rect class="cls-1" x="721.29" y="489.53" width="41.74" height="128.26"/></clipPath><clipPath id="clip-path-42"><rect class="cls-1" x="797.38" y="691.63" width="5.39" height="52.48"/></clipPath><clipPath id="clip-path-43"><rect class="cls-1" x="721.29" y="512.87" width="81.48" height="206.07"/></clipPath><clipPath id="clip-path-44"><rect class="cls-1" x="721.29" y="605.24" width="81.48" height="138.87"/></clipPath><clipPath id="clip-path-45"><rect class="cls-1" x="721.29" y="489.53" width="49.99" height="147.56"/></clipPath><clipPath id="clip-path-46"><rect class="cls-1" x="721.29" y="513.89" width="81.48" height="212.29"/></clipPath><clipPath id="clip-path-47"><rect class="cls-1" x="721.29" y="614.17" width="81.48" height="129.94"/></clipPath><clipPath id="clip-path-48"><rect class="cls-1" x="721.29" y="490.06" width="57.89" height="163.51"/></clipPath><clipPath id="clip-path-49"><rect class="cls-1" x="721.29" y="531.51" width="81.48" height="201.01"/></clipPath><clipPath id="clip-path-50"><rect class="cls-1" x="721.29" y="623.42" width="81.48" height="120.69"/></clipPath><clipPath id="clip-path-51"><rect class="cls-1" x="721.29" y="495.16" width="65.44" height="172.88"/></clipPath><clipPath id="clip-path-52"><rect class="cls-1" x="721.29" y="547.54" width="81.48" height="190.28"/></clipPath><clipPath id="clip-path-53"><rect class="cls-1" x="721.29" y="632.91" width="81.48" height="111.2"/></clipPath><clipPath id="clip-path-54"><rect class="cls-1" x="721.29" y="500.23" width="73.48" height="180.45"/></clipPath><clipPath id="clip-path-55"><rect class="cls-1" x="721.29" y="561.54" width="81.48" height="180.58"/></clipPath><clipPath id="clip-path-56"><rect class="cls-1" x="725.09" y="642.95" width="77.68" height="101.16"/></clipPath><clipPath id="clip-path-57"><rect class="cls-1" x="721.29" y="504.46" width="81.48" height="187.33"/></clipPath><clipPath id="clip-path-58"><rect class="cls-1" x="721.29" y="574.08" width="81.48" height="170.03"/></clipPath><clipPath id="clip-path-59"><rect class="cls-1" x="721.29" y="489.53" width="10.79" height="77.21"/></clipPath><clipPath id="clip-path-60"><rect class="cls-1" x="731.75" y="653.46" width="71.02" height="90.66"/></clipPath><clipPath id="clip-path-61"><path class="cls-1" d="M721.31,744.11c4.53-3.53,18.28-15.3,20-16.59h0c3-2.38,3.71-3.46,11.15-2.14h0c7.45,1.33,46.42,10.52,46.42,10.52h0l3.94-195.59s0-14.52-10.63-19.57h0c-9.78-4.62-62.59-27.62-70.83-31.21h0Z"/></clipPath><clipPath id="clip-path-62"><rect class="cls-1" x="721.31" y="489.53" width="22.88" height="90.87"/></clipPath><clipPath id="clip-path-63"><rect class="cls-1" x="757.96" y="664.86" width="44.81" height="79.25"/></clipPath><clipPath id="clip-path-64"><rect class="cls-1" x="721.31" y="508.25" width="81.46" height="193.76"/></clipPath><clipPath id="clip-path-65"><rect class="cls-1" x="721.31" y="585.48" width="81.46" height="158.63"/></clipPath><clipPath id="clip-path-66"><rect class="cls-1" x="721.31" y="489.53" width="32.82" height="107.24"/></clipPath><clipPath id="clip-path-67"><rect class="cls-1" x="721.31" y="510.95" width="81.46" height="199.99"/></clipPath><clipPath id="clip-path-68"><rect class="cls-1" x="721.31" y="595.75" width="81.46" height="148.36"/></clipPath><clipPath id="clip-path-69"><rect class="cls-1" x="721.31" y="489.53" width="41.73" height="128.26"/></clipPath><clipPath id="clip-path-71"><rect class="cls-1" x="721.31" y="512.87" width="81.46" height="206.07"/></clipPath><clipPath id="clip-path-72"><rect class="cls-1" x="721.31" y="605.24" width="81.46" height="138.87"/></clipPath><clipPath id="clip-path-73"><rect class="cls-1" x="721.31" y="489.53" width="49.98" height="147.56"/></clipPath><clipPath id="clip-path-74"><rect class="cls-1" x="721.31" y="513.89" width="81.46" height="212.29"/></clipPath><clipPath id="clip-path-75"><rect class="cls-1" x="721.31" y="614.17" width="81.46" height="129.94"/></clipPath><clipPath id="clip-path-76"><rect class="cls-1" x="721.31" y="490.06" width="57.88" height="163.51"/></clipPath><clipPath id="clip-path-77"><rect class="cls-1" x="721.31" y="531.51" width="81.46" height="201.01"/></clipPath><clipPath id="clip-path-78"><rect class="cls-1" x="721.31" y="623.42" width="81.46" height="120.69"/></clipPath><clipPath id="clip-path-79"><rect class="cls-1" x="721.31" y="495.16" width="65.43" height="172.88"/></clipPath><clipPath id="clip-path-80"><rect class="cls-1" x="721.31" y="547.54" width="81.46" height="190.28"/></clipPath><clipPath id="clip-path-81"><rect class="cls-1" x="721.31" y="632.91" width="81.46" height="111.2"/></clipPath><clipPath id="clip-path-82"><rect class="cls-1" x="721.31" y="500.23" width="73.46" height="180.45"/></clipPath><clipPath id="clip-path-83"><rect class="cls-1" x="721.31" y="561.54" width="81.46" height="180.58"/></clipPath><clipPath id="clip-path-84"><rect class="cls-1" x="725.12" y="642.95" width="77.65" height="101.16"/></clipPath><clipPath id="clip-path-85"><rect class="cls-1" x="721.31" y="504.63" width="81.46" height="187.33"/></clipPath><clipPath id="clip-path-86"><rect class="cls-1" x="721.31" y="574.08" width="81.46" height="170.03"/></clipPath><clipPath id="clip-path-87"><rect class="cls-1" x="721.31" y="489.53" width="10.79" height="77.21"/></clipPath><clipPath id="clip-path-88"><rect class="cls-1" x="731.75" y="653.46" width="71.02" height="90.66"/></clipPath><clipPath id="clip-path-89"><path class="cls-1" d="M763.59,446.75a2.37,2.37,0,0,0-2.36,2.37h0a2.37,2.37,0,0,0,2.36,2.36h87.07a2.37,2.37,0,0,0,2.36-2.36h0a2.37,2.37,0,0,0-2.36-2.37H763.59Z"/></clipPath><clipPath id="clip-path-90"><rect class="cls-1" x="760.72" y="447.25" width="91.79" height="4.5"/></clipPath><linearGradient id="linear-gradient-2" x2="1" gradientTransform="matrix(91.79, 0, 0, -91.79, 760.73, 449.46)" gradientUnits="userSpaceOnUse"><stop offset="0" stop-color="#65b64e"/><stop offset="1" stop-color="#085d35"/></linearGradient><clipPath id="clip-path-91"><path class="cls-1" d="M808.12,430.24l-46.72,9.12c-.7.14-1.08,1.29-.82,2.57h0c.24,1.29,1,2.21,1.71,2.07h0L809,434.88c.7-.13,1.06-1.28.82-2.56h0c-.23-1.2-.92-2.09-1.59-2.09h-.14"/></clipPath><clipPath id="clip-path-92"><rect class="cls-1" x="759.72" y="430.87" width="49.72" height="13.84"/></clipPath><linearGradient id="linear-gradient-3" x1="-0.01" y1="0" x2="1" y2="0" gradientTransform="matrix(49.42, 0, 0, -49.42, 760.04, 437.57)" xlink:href="#linear-gradient-2"/><clipPath id="clip-path-93"><path class="cls-1" d="M760.79,456.17c-.26,1.28.12,2.43.81,2.56h0l46.72,9.12c.71.14,1.47-.78,1.72-2.07h0c.26-1.28-.1-2.43-.8-2.57h0L762.5,454.1l-.14,0h0c-.66,0-1.35.89-1.57,2.09"/></clipPath><clipPath id="clip-path-94"><rect class="cls-1" x="759.45" y="455.23" width="49.76" height="13.84"/></clipPath><linearGradient id="linear-gradient-4" x1="0" y1="0" x2="1.01" y2="0" gradientTransform="matrix(49.42, 0, 0, -49.42, 759.44, 462.28)" xlink:href="#linear-gradient-2"/><clipPath id="clip-path-95"><path class="cls-1" d="M589.55,447.32a2.37,2.37,0,0,0-2.37,2.36h0a2.37,2.37,0,0,0,2.37,2.36h87.07a2.37,2.37,0,0,0,2.37-2.36h0a2.36,2.36,0,0,0-2.37-2.36H589.55Z"/></clipPath><clipPath id="clip-path-96"><rect class="cls-1" x="586.27" y="446.37" width="91.8" height="4.5"/></clipPath><linearGradient id="linear-gradient-5" x1="0" y1="0" x2="1" y2="0" gradientTransform="translate(677.78 448.34) rotate(180) scale(91.8)" xlink:href="#linear-gradient-2"/><clipPath id="clip-path-97"><path class="cls-1" d="M630.38,432.88c-.25,1.28.1,2.43.81,2.57h0l46.73,9.11c.7.14,1.47-.79,1.72-2.07h0c.24-1.28-.12-2.43-.82-2.56h0l-46.73-9.12H632c-.66,0-1.34.89-1.57,2.08"/></clipPath><clipPath id="clip-path-98"><rect class="cls-1" x="630.94" y="431.69" width="49.77" height="13.84"/></clipPath><linearGradient id="linear-gradient-6" x1="0" y1="0.01" x2="1.01" y2="0.01" gradientTransform="translate(680.88 438.93) rotate(180) scale(49.42)" xlink:href="#linear-gradient-2"/><clipPath id="clip-path-99"><path class="cls-1" d="M677.72,454.66,631,463.78c-.71.14-1.07,1.28-.8,2.56h0c.24,1.28,1,2.22,1.72,2.08h0l46.72-9.13c.7-.13,1-1.28.81-2.56h0c-.23-1.2-.91-2.08-1.58-2.08h-.13"/></clipPath><clipPath id="clip-path-100"><rect class="cls-1" x="628.58" y="453.25" width="49.76" height="13.84"/></clipPath><linearGradient id="linear-gradient-7" x1="0" y1="0" x2="1.01" y2="0" gradientTransform="translate(678.33 460.27) rotate(180) scale(49.42)" xlink:href="#linear-gradient-2"/><clipPath id="clip-path-101"><rect class="cls-1" x="509.66" y="876.26" width="415.49" height="103.69"/></clipPath></defs><g class="cls-2"><g id="Layer_1" data-name="Layer 1"><path class="cls-3" d="M912,1009.14c-3.38,0-4.21-3.35-7.45-5.13-48.28-27.14-129.52-49.68-184.62-46.4-65,0-128.66,17.6-184.37,47.5-3.29,1.77-12.65,6.82-16.05,6.82-8.85,0-9.33-10.26-11.81-16.3l-.1-.23-.08-.24L467.85,883.9c-1.68-3.58-4.46-12.79-8.18-23.5-1.27-3.61-.22-3.86,10-3.86l406,.81,77.75-.46c3.56,0,29.32-1.86,28.4,2.33a189,189,0,0,1-6.55,21.52c-.33.92-41.57,113.24-42.44,115.31-3.24,7.76-3.32,15.88-11.07,15.88Z"/><path class="cls-4" d="M610,1028.31s104.94-40.77,206.7-2.66c21.09,7.89,17.62-5.49,21.74-14.8,1.21-2.71,11.81-29.33,11.81-29.33C816.1,968.39,762.13,957,718,957.4c-46.28.39-98.82,9.84-128.06,23.87Z"/><path class="cls-4" d="M639.59,651.44c-14.76,16.08-36.15,42.87-36.15,42.87-9,13.23-18.61,33.59-23.75,50.6-10.37,34.3-13,80.91-11.88,99.16a34.54,34.54,0,0,1-2.39,14.06l289.17.63c0-.54,19.44,1.09,19.44-1.85,0-18.37-.06-73.28-10.83-103.74C858.35,739.51,852.75,720.05,842,701c0,0-33.84-41.84-40.28-49.06Z"/><path class="cls-5" d="M795.85,643.29s15.76,15.56,18,17.89a239.48,239.48,0,0,1,16.46,19c12.27,15.85,26.16,37.91,33.82,65,9.23,28.14,11.16,57.33,11.19,78.39,0,4.73-.26,15.59-.26,25.93,0,3.28,3,4.14,5.13,4.14,18.49,0,85,0,94.11,0,12.74.08,8.43,11.54,8.43,11.54l-51.79,140.15s-2.85,12.86-15.52,7.15c-12.13-5.47-36.57-19.62-60.27-27.58-3.84-1.29-4.52,1.51-5.06,2.85s-9.18,23.34-12.53,30.54-4,13.77-15.62,10.47c-84.64-27.48-152.25-18-205.2.37-11.37,3-11.28-4.11-14.63-11.34s-12-28.7-12.54-30-1.21-4.14-5.06-2.85c-23.7,8-48.14,22.11-60.26,27.58-12.67,5.71-15.52-7.15-15.52-7.15L456.94,865.28s-4.32-11.46,8.41-11.54c9.17,0,75.62,0,94.11,0,3.16,0,4.52-.74,4.52-4.14,0-10.34-.25-21.2-.25-25.93,0-21.12,2-50.4,11.25-78.57,14.6-45.4,45.76-78.71,55.5-89.15l15.36-15.32,3.61,3.62L634.2,659.42c-9.64,10.31-40.19,43.11-54.38,87.28-9,27.35-11,56.16-11,77,0,4.59.25,15.52.25,25.93a9.05,9.05,0,0,1-2.91,7.26,10,10,0,0,1-6.71,2l-67,0c-13.15,0-23.82,0-27.06,0-2.95,0-3.56.74-3.69.86a2.17,2.17,0,0,0-.35,1.47,7.71,7.71,0,0,0,.36,2.26.45.45,0,0,0,0,.08L513.63,1004l.07.34,0,.09c0,.12.1.33.2.59a9.94,9.94,0,0,0,1,1.91c1,1.33,1.67,2,3.39,2a9.65,9.65,0,0,0,3.87-1c11.68-5.24,36.42-19.59,60.74-27.76a10.43,10.43,0,0,1,3.42-.6,8,8,0,0,1,6.46,3.28,12.49,12.49,0,0,1,1.54,3.09c.51,1.29,9.23,22.91,12.43,29.8,1.6,3.53,2.48,6.57,3.31,7.9,1,1.27.24.94,2,1.19a14.29,14.29,0,0,0,3.38-.54h0l.16,0a317.57,317.57,0,0,1,207.71-.31,15.11,15.11,0,0,0,4,.69c1.84-.2,1.33-.07,2.31-1.19s1.81-3.9,3.3-7.2c3.22-6.89,11.93-29,12.43-30.27a12.12,12.12,0,0,1,1.54-3.11,8,8,0,0,1,6.47-3.3,10.51,10.51,0,0,1,3.41.6c24.34,8.18,49.07,22.53,60.74,27.77a9.61,9.61,0,0,0,3.87,1,3.55,3.55,0,0,0,3.06-1.57,9.76,9.76,0,0,0,1.49-3l0-.09.08-.35,51.91-140.48,0-.06c0-.11.07-.3.14-.53a8.28,8.28,0,0,0,.21-1.73,2.2,2.2,0,0,0-.35-1.47c-.15-.13-.75-.81-3.7-.86-3.26,0-13.92,0-27.06,0l-67,0a11.49,11.49,0,0,1-6.06-1.6,8.85,8.85,0,0,1-4.17-7.64c0-10.41.26-21.34.26-25.93,0-20.74-2-49.45-11-76.8l0-.12,0-.09c-7.4-26.28-20.92-47.79-33-63.31a229,229,0,0,0-16.1-18.63c-2.06-2.16-17.86-17.77-17.88-17.78Z"/><path class="cls-5" d="M719.11,959.49c-51.62,0-95.09,10.89-134.66,25.52l-1.64-4.43c39.91-14.77,84-25.83,136.3-25.83,49.49,0,91.19,8.23,137.91,25.87v0l-1.67,4.42c-46.34-17.47-87.28-25.57-136.25-25.57"/><path class="cls-5" d="M719.11,959.49c-51.62,0-95.09,10.89-134.66,25.52l-1.64-4.43c39.91-14.77,84-25.83,136.3-25.83,49.49,0,91.19,8.23,137.91,25.87v0l-1.67,4.42c-46.34-17.47-87.28-25.57-136.25-25.57"/><g class="cls-6"><g class="cls-7"><rect class="cls-8" x="471.71" y="868.42" width="491.17" height="128.86"/></g></g><path class="cls-3" d="M819.08,752.11,793.65,832.2c-.06,0-2,1.3-2.21,1.38a9.43,9.43,0,0,0-2.07-2.6c-1.59-1-2.92-2-4.12-2.89-4-2.9-6.15-2.23-12.38-2.69-2.4-.18-6-1-10.39-1-5.62,0-10.71,0-12.4.07-2.66.19-4.47,1.73-6.66,3.82s-5.69,4.6-8.31,4.71l-1.68.56c-3.45,0-4.45-3.52-5.9-5.63-1.16-1.7-2.49-4-7.45-4-1.25,0-4.77.77-8.45,6.59-1.33,2.09-3.77,2.49-7.42,2.49l-3.19-.27c-2.61-.13-3.64-4.35-5.83-6.44s-3.61-2.12-6.3-2.3c-1.73-.11-7.47.9-13.16.9-4.31,0-7.4-.78-9.77-.64-6.24.47-8.84,3.16-12.81,6.06-1.24.89-3.72,2.35-5.35,3.39-.74.48-1.7-2.1-1.81-2.08a3.14,3.14,0,0,1-.85-1.13l-24.52-78.47c-.08-.41-.56-2.38,2.48-3.27.47-.11,57.56-14.18,64-15.63a10.9,10.9,0,0,1,2.29-.3c1.35,0,2.09-1.39,4.93.82l2,1.32c4.56,3.45,20.79,15.39,20.91,15.52l2.85,3.4,1.63-1.1c.18-.13,14.77-12.9,19.34-16.34l1.28-1c2.83-2.2,3.58-2.67,4.93-2.67.62,0,1.35.22,2.32.32,6.87.65,63.32,14.36,63.89,14.5,2.95.85,5.82,3.77,5.61,4.51"/><path class="cls-5" d="M815.94,744.44s-57.65-14.23-64.15-15.67c-6.07-1.35-7.87.66-12.6,4.23s-19.54,16.59-19.54,16.59-15.18-12.91-20-16.49-6.5-5.62-12.56-4.25C680.6,730.31,623,744.52,623,744.52s-7.67,2-5.89,9.48l24.67,78.88s2.76,7,9.29,2.77,9-7.52,15.53-8,20.25-.15,22.71,0,7.36,8.49,14.38,8.81,9.07-2.7,10.78-5.4c2.55-4.05,5-4,5-4,1.63,0,3.26,1.31,5.06,3.91s3.77,5.73,10.78,5.4,11.93-8.65,14.38-8.81,16.16-.5,22.68,0,9,3.74,15.53,8,9.27-2.76,9.27-2.76l24.7-78.87c1.81-7.52-5.89-9.49-5.89-9.49m1.1,8.33-24.57,78.55s-.48.62-.71.7a3.63,3.63,0,0,1-1.22-.55c-1.61-1.07-3-2.05-4.18-2.93-4-2.9-7.41-5.4-13.66-5.86-2.41-.18-5.87-.26-10.25-.26-5.62,0-11.43.14-13.13.25-2.69.17-4.56,2-6.73,4s-4.92,4.67-7.54,4.79h-.79c-3.48,0-4.13-1-5.58-3.09-1.17-1.69-4.3-6.24-9.26-6.24-1.21,0-5.46.45-9.14,6.27-1.34,2.07-2,3.13-5.64,3.13l-.79,0c-2.59-.1-5.33-2.71-7.52-4.76s-4.06-3.87-6.74-4c-1.73-.12-7.62-.27-13.29-.27-4.32,0-7.71.07-10.1.27-6.24.45-9.68,3-13.65,5.85-1.23.89-2.58,1.87-4.19,2.91a3.48,3.48,0,0,1-1.23.59,3.18,3.18,0,0,1-.87-1.13l-24.48-78.46c-.11-.4-.58-2.39,2.47-3.26.46-.13,57.54-14.2,64-15.64a11.7,11.7,0,0,1,2.29-.3c1.34,0,2.1.48,5,2.68l1.31,1c4.56,3.48,19.53,16.21,19.68,16.34l3.23,2.72,3.2-2.78c.12-.12,14.72-12.9,19.27-16.34l1.3-1c2.84-2.21,3.6-2.68,5-2.68a10.9,10.9,0,0,1,2.27.3c6.4,1.43,63.5,15.51,64.07,15.67,3,.82,2.48,2.82,2.29,3.55"/><path class="cls-5" d="M758,761.15c0,.42-.48,3.85-.61,8.46-.15,6.85-.21,13.43-1.6,19.76-.73,3.39-2.29,6.21-3.43,7.14,0,0-1.07,1.3-.39-1.68a53.77,53.77,0,0,0,1.25-10.67c.12-7.46,0-13.38.12-14.19.41-2.22,4.62-10.12,4.66-8.82"/><path class="cls-5" d="M793.37,762.26c0,.35-.7,3.36-1,7.44-.51,6-1,12.95-2.7,18.48-.94,3-2.67,5.55-3.84,6.33,0,0-1.14,1.1-.3-1.53a43.21,43.21,0,0,0,2.09-9.62,133.45,133.45,0,0,1,1.65-13.88c.43-1.18,4.18-8.4,4.15-7.22"/><path class="cls-5" d="M779,782.94c-.23-.79-1.67-.88-1.67-.88a4.8,4.8,0,0,1-7.32-1.38c-2-3.1,1.44-12.65,6.39-13.2,4.13-.47,8.35,4.27,5.44,16.68a14.82,14.82,0,0,1-9,9.42c-7.31,2.79-8,5.4-11.39,10.4-3.68,5.3-16.08,9-18.28,9.27,0,0-1.6-.48,2.64-2.12a32,32,0,0,0,15.71-14.07c3.48-6.93,9.87-9.65,14.25-11,2.25-.72,3.5-2.1,3.22-3.09"/><path class="cls-5" d="M743.77,788.67c-.37,1.53-.92,5.23-4.27,5.21-2.12,0-3.5-2.35-3.3-4.62s.39-7.64.82-12.1c.36-4,.93-7.3.93-7.3s.09-1.39-.75.19c-.51,1-2.89,5-3,6.2s-1.52,16.49-1.25,18.87,1.7,5.47,4.6,5.67,7-4.86,7.1-11c0-1-.68-2.14-.92-1.1"/><path class="cls-5" d="M735.42,760.29s.61-1.21.78-.13-1,8.1-5.66,10c-3.18,1.26-4.52,3.29-6.33,4a3.23,3.23,0,0,1-2.47-.15c-.62-.25-1.28-.83-1.94-.72-1.73.27-4,2.5-5,4.13-.32.54.06,1.22,1.17,1.2a8.31,8.31,0,0,1,5.22,2c1.48,1.56.76,4.43-.41,6.61,0,0-1.11,3.59-9.1,5.19,0,0-4.93.94-7.59,3.29-2.43,2.14-2.87,5.68-3.08,6.52-1.22,5.4-1.45,13-1.83,13.91-.49,1.23-1.15,1.23-1.13-.1,0,0-.67-9.29,1-16.61,2.35-10.16,8.21-12.37,10.81-12.86a22.56,22.56,0,0,1,2.67-9.83c1.77-3,5.9-7.31,9.05-8.54,1.93-.73,3.25,1.17,4.08.92,2.18-.74,3.62-3.61,3.83-5s.9-.59.84-.11,1.21,1.49,2.22,1.07c1.92-.81,2.84-4.8,2.84-4.8"/><path class="cls-5" d="M758.2,745.66s-4,.83-5,2.53c0,0-.95,1.2,3.19,1.82,0,0,2.53.51,1.92,2.36-.47,1.35-.75,4.76-9.83,8.14,0,0-1.08.13-.13-.57s6.81-5.06,5.89-5.77-5.91-.94-5.33-3.51a15.2,15.2,0,0,1,4.5-5.38c2.94-2.13,5.69-3.65,5.59-2.83s-.76,3.21-.76,3.21"/><path class="cls-5" d="M668,763.76s-3.67,1.84-4.57,4.17c0,0-1,1.69,4.4,1.7,0,0,3.28.16,2.89,2.61-.3,1.76.08,6.1-10.63,12,0,0-1.35.37-.28-.7s7.51-7.6,6.19-8.31-7.65-.1-7.45-3.44a18.71,18.71,0,0,1,4.51-7.6c3.26-3.22,6.39-5.68,6.43-4.6s-1.49,4.12-1.49,4.12"/><path class="cls-5" d="M775.66,757s3.16-3.24,3.44-3.56a1.5,1.5,0,0,1,1.46-.5,20.16,20.16,0,0,1,5.22,2.63c1.12,1,.73,1.33.54,1.58s-3.35,3.74-3.92,4.3-.87.09-1.31-.2-5.09-3-5.22-3.09-.71-.68-.21-1.16"/><path class="cls-5" d="M764.86,757.88s3.16-3.22,3.46-3.56a1.42,1.42,0,0,1,1.41-.5,21.16,21.16,0,0,1,5.26,2.63c1.14,1,.71,1.34.52,1.58s-3.34,3.74-3.92,4.31-.87.08-1.3-.2-5.09-2.95-5.24-3.08-.7-.7-.19-1.18"/><path class="cls-5" d="M725.6,806.4s3.17-3.21,3.44-3.55a1.44,1.44,0,0,1,1.45-.5,19.85,19.85,0,0,1,5.24,2.64c1.13,1,.73,1.33.55,1.55s-3.35,3.76-3.94,4.31-.86.08-1.31-.18-5.1-2.95-5.23-3.08-.71-.72-.2-1.19"/><path class="cls-5" d="M663,806.25s3.16-3.26,3.43-3.58a1.56,1.56,0,0,1,1.44-.52,21.52,21.52,0,0,1,5.26,2.65c1.13,1,.71,1.34.54,1.58s-3.34,3.73-3.92,4.31-.88.07-1.31-.2-5.1-3-5.23-3.08-.7-.7-.21-1.16"/><path class="cls-5" d="M693.82,783.33s1.15-1.69,1.22.19,0,20.33-5.75,21.86-8.35,1.71-9.39,2-1.23-.71-.1-1.41,10.87-4.43,12.35-12.25c1.16-6.17,1.67-10.43,1.67-10.43"/><path class="cls-5" d="M688.17,784.1c-.85,1.26-.9,5-4.08,4.94s-4.42-5-3.52-9.57,1-6.41,1.47-8.37c.17-.67,2.14-3.14,5.08-5.74,5.75-5.1,14.54-12.17,15.77-17.42,0,0,.16-.66-1.1.77-.53.64-4,3.27-8.24,6.73-5.63,4.57-12.82,10.18-14,15.49,0,0-3.08,11.33-3.91,13.21-2,4.63-7.41,7.3-14.36,8.33s-12.23-.4-12-3.8-.21-6-1.26-2-3.59,11.91,2.72,12.76,18.86-1.07,22.46-6.17c1.57-2.25,2.32-4.61,3-5.56.82-1.18,1.3-.58,1.22,0-.17.93,0,8.6,4.62,8.21s6.35-8.19,6.84-10.57c.22-1.16.11-2.42-.69-1.24"/><path class="cls-5" d="M718.5,489.53c-8.22,3.59-61.06,26.59-70.84,31.21C637,525.79,637,540.31,637,540.31l3.82,190.5s.74,4.9,5.31,3.87c10.86-2.55,35.46-8.29,41.24-9.3,7.42-1.32,8.1-.24,11.14,2.14,1.66,1.29,15.42,13.38,20,16.92Z"/><g class="cls-9"><g class="cls-10"><g class="cls-11"><polygon class="cls-12" points="798.38 572.05 798.38 573.29 798.72 577.47 799.17 580.4 695.63 476.97 696.19 476.87 697.2 476.75 698.23 476.64 699.24 476.53 700.15 476.4 701.18 476.3 702.05 476.3 702.52 476.3 798.38 572.05"/></g></g><g class="cls-10"><g class="cls-13"><polygon class="cls-12" points="681.85 761.77 680.49 760.97 678.36 759.84 676.32 758.82 674.3 757.93 672.36 757.02 670.44 756.34 668.52 755.55 667.74 755.32 584.62 672.09 584.62 670.73 584.73 666.55 584.96 664.86 681.85 761.77"/></g></g><g class="cls-10"><g class="cls-14"><polygon class="cls-12" points="820.29 696.14 632.39 508.25 632.26 508.25 629.45 509.15 626.76 509.94 626.53 509.94 818.59 702.01 819.39 699.64 820.29 696.36 820.29 696.14"/></g></g><g class="cls-10"><g class="cls-15"><polygon class="cls-12" points="768.9 746.85 607.66 585.48 607.55 586.04 606.64 590.45 606.31 591.69 762.94 748.43 763.85 748.21 765.41 747.76 767 747.3 768.57 746.85 768.9 746.85"/></g></g><g class="cls-10"><g class="cls-16"><polygon class="cls-12" points="800.07 586.49 691.45 477.88 690.33 478.22 688.97 478.67 687.62 479.12 686.13 479.57 685.68 479.8 802.68 596.77 802.01 594.74 800.86 590.45 800.07 586.49"/></g></g><g class="cls-10"><g class="cls-17"><polygon class="cls-12" points="660.16 752.84 584.62 677.28 584.62 678.64 584.96 682.36 585.31 685.52 649.45 749.79 650 749.9 651.59 750.36 653.17 750.8 654.64 751.25 655.55 751.49 656.56 751.82 657.68 752.16 658.91 752.5 660.16 752.84"/></g></g><g class="cls-10"><g class="cls-18"><polygon class="cls-12" points="817.13 705.73 622.44 510.95 621.1 511.3 618.38 511.85 616.01 512.19 814.75 710.94 815.9 708.67 817.13 705.73"/></g></g><g class="cls-10"><g class="cls-19"><polygon class="cls-12" points="758.88 749.57 605.17 595.75 604.18 599.03 603.37 601.51 752.87 751.25 753.01 751.25 754.46 750.8 756.03 750.36 757.51 749.9 758.88 749.57"/></g></g><g class="cls-10"><g class="cls-20"><polygon class="cls-12" points="805.39 604.68 681.97 481.26 681.52 481.5 679.8 482.17 678.12 482.95 676.78 483.63 810.93 617.78 809.11 613.26 806.64 607.5 805.39 604.68"/></g></g><g class="cls-10"><g class="cls-21"><polygon class="cls-12" points="642.43 747.86 586.2 691.63 586.54 692.98 587.33 696.36 588.23 699.64 589.03 702.12 631.38 744.48 632.62 744.93 634.2 745.38 635.78 745.95 637.36 746.4 638.95 746.85 640.51 747.3 642.1 747.76 642.43 747.86"/></g></g><g class="cls-10"><g class="cls-22"><polygon class="cls-12" points="812.95 714.32 611.62 512.87 610.38 512.99 607.77 513.32 605.17 513.55 604.62 513.55 810.01 718.94 811.36 717.04 812.95 714.32"/></g></g><g class="cls-10"><g class="cls-23"><polygon class="cls-12" points="748.91 752.38 601.91 605.24 601 607.5 599.65 610.55 743.06 754.2 744.18 753.75 745.77 753.28 747.23 752.84 748.58 752.5 748.91 752.38"/></g></g><g class="cls-10"><g class="cls-24"><polygon class="cls-12" points="813.86 625.9 673.37 485.45 672.48 485.89 670.44 487.02 668.52 488.15 817.45 637.09 816.67 634.38 815.09 629.29 813.86 625.9"/></g></g><g class="cls-10"><g class="cls-25"><polygon class="cls-12" points="807.89 722 599.76 513.89 598.96 513.89 599.08 514.23 600.22 517.28 601.33 520.43 602.36 523.6 602.58 524.28 804.36 726.18 805.84 724.61 807.75 722.13 807.89 722"/></g></g><g class="cls-10"><g class="cls-26"><polygon class="cls-12" points="739.33 755.44 598.07 614.17 596.25 618.69 595.93 619.71 733.8 757.69 735.27 757.02 737.17 756.34 738.98 755.54 739.33 755.44"/></g></g><g class="cls-10"><g class="cls-27"><polygon class="cls-12" points="819.28 643.98 665.35 490.07 663.9 490.97 661.64 492.43 660.62 493 821.2 653.57 821.2 653.46 820.29 648.83 819.28 644.21 819.28 643.98"/></g></g><g class="cls-10"><g class="cls-28"><polygon class="cls-12" points="801.88 728.78 604.62 531.5 605.28 533.88 606.08 537.49 606.87 541.22 606.87 541.44 797.91 732.51 798.82 731.72 800.18 730.47 801.54 729.24 801.88 728.78"/></g></g><g class="cls-10"><g class="cls-29"><polygon class="cls-12" points="730.28 759.27 594.56 623.42 594.33 624 592.52 629.08 725.32 761.98 727.13 760.97 729.18 759.84 730.28 759.27"/></g></g><g class="cls-10"><g class="cls-30"><polygon class="cls-12" points="822.09 659.55 657.59 495.15 656.68 495.71 654.07 497.63 653.05 498.19 822.89 668.03 822.77 666.55 822.41 662.38 822.09 659.55"/></g></g><g class="cls-10"><g class="cls-31"><polygon class="cls-12" points="795.12 734.78 608.01 547.53 608.1 548.89 608.69 552.84 608.91 556.12 790.61 737.81 791.74 737.03 793.18 736.14 794.67 735.11 795.12 734.78"/></g></g><g class="cls-10"><g class="cls-32"><polygon class="cls-12" points="722.16 763.89 591.28 632.91 590.96 634.38 589.59 638.9 717.64 767.08 718.54 766.38 720.7 764.91 722.16 763.89"/></g></g><g class="cls-10"><g class="cls-33"><polygon class="cls-12" points="822.99 673.22 650 500.23 648.87 500.9 646.14 502.38 645.04 502.94 822.77 680.68 822.89 678.64 822.99 674.69 822.99 673.22"/></g></g><g class="cls-10"><g class="cls-34"><polygon class="cls-12" points="787.32 739.63 609.24 561.54 609.35 564.83 609.35 569 609.35 569.22 782.12 742.12 782.81 741.88 784.26 741.21 785.85 740.42 787.32 739.63"/></g></g><g class="cls-10"><g class="cls-35"><polygon class="cls-12" points="714.7 769.21 588.58 642.95 588.23 644.2 587.22 648.83 587.22 649.16 710.64 772.83 712.01 771.58 714.16 769.78 714.7 769.21"/></g></g><g class="cls-10"><g class="cls-36"><polygon class="cls-12" points="641.65 504.63 640.63 505.08 637.92 506.22 636.23 506.89 821.31 691.96 822.32 685.42 641.65 504.63"/></g></g><g class="cls-10"><g class="cls-37"><polygon class="cls-12" points="778.5 743.57 609.13 574.08 608.79 577.46 608.33 581.08 772.87 745.61 773.32 745.38 774.9 744.93 776.48 744.37 778.05 743.79 778.5 743.57"/></g></g><g class="cls-10"><g class="cls-38"><polygon class="cls-12" points="798.38 559.29 717.19 478.22 716.05 477.88 714.84 477.55 713.7 477.32 712.56 477.09 711.45 476.87 710.42 476.75 709.41 476.64 708.38 476.53 707.71 476.4 798.28 566.73 798.16 564.83 798.28 560.75 798.38 559.29"/></g></g><g class="cls-10"><g class="cls-39"><polygon class="cls-12" points="586.32 653.46 585.65 657.98 585.41 660.24 704.33 779.26 705.45 777.89 707.6 775.64 708.07 775.33 586.32 653.46"/></g></g></g><path class="cls-40" d="M721.29,489.53c8.26,3.59,61.06,26.59,70.85,31.21,10.63,5,10.63,19.57,10.63,19.57l-3.84,190.5s-.72,4.9-5.3,3.87c-10.85-2.55-35.46-8.29-41.24-9.3-7.42-1.32-8.09-.24-11.13,2.14-1.68,1.29-15.43,13.06-20,16.6Z"/><g class="cls-41"><g class="cls-10"><g class="cls-42"><polygon class="cls-12" points="641.4 572.05 641.4 573.29 641.07 577.47 640.61 580.4 744.17 476.97 743.62 476.87 742.6 476.75 741.58 476.64 740.56 476.53 739.65 476.4 738.64 476.3 737.73 476.3 737.27 476.3 641.4 572.05"/></g></g><g class="cls-10"><g class="cls-43"><polygon class="cls-12" points="757.95 761.77 759.31 760.97 761.47 759.84 763.49 758.82 765.52 757.93 767.45 757.02 769.38 756.34 771.28 755.55 772.07 755.32 855.18 672.09 855.18 670.73 855.07 666.55 854.84 664.86 757.95 761.77"/></g></g><g class="cls-10"><g class="cls-44"><polygon class="cls-12" points="619.48 696.14 807.41 508.25 807.54 508.25 810.36 509.15 813.06 509.94 813.28 509.94 621.2 702.01 620.41 699.64 619.48 696.36 619.48 696.14"/></g></g><g class="cls-10"><g class="cls-45"><polygon class="cls-12" points="670.88 746.85 832.15 585.48 832.25 586.04 833.16 590.45 833.51 591.69 676.85 748.43 675.93 748.21 674.38 747.76 672.8 747.3 671.23 746.85 670.88 746.85"/></g></g><g class="cls-10"><g class="cls-46"><polygon class="cls-12" points="639.71 586.49 748.35 477.88 749.48 478.22 750.84 478.67 752.2 479.12 753.67 479.57 754.12 479.8 637.12 596.77 637.78 594.74 638.93 590.45 639.71 586.49"/></g></g><g class="cls-10"><g class="cls-47"><polygon class="cls-12" points="779.64 752.84 855.18 677.28 855.18 678.64 854.84 682.36 854.48 685.52 790.37 749.79 789.8 749.9 788.22 750.36 786.63 750.8 785.17 751.25 784.26 751.49 783.25 751.82 782.12 752.16 780.89 752.5 779.64 752.84"/></g></g><g class="cls-10"><g class="cls-48"><polygon class="cls-12" points="622.64 705.73 817.37 510.95 818.72 511.3 821.43 511.85 823.79 512.19 625.04 710.94 623.91 708.67 622.64 705.73"/></g></g><g class="cls-10"><g class="cls-49"><polygon class="cls-12" points="680.93 749.57 834.63 595.75 835.64 599.03 836.45 601.51 686.91 751.25 686.8 751.25 685.34 750.8 683.76 750.36 682.29 749.9 680.93 749.57"/></g></g><g class="cls-10"><g class="cls-50"><polygon class="cls-12" points="634.4 604.68 757.85 481.26 758.29 481.5 759.98 482.17 761.67 482.95 763.03 483.63 628.88 617.78 630.69 613.26 633.16 607.5 634.4 604.68"/></g></g><g class="cls-10"><g class="cls-51"><polygon class="cls-12" points="797.38 747.86 853.6 691.63 853.27 692.98 852.47 696.36 851.58 699.64 850.78 702.12 808.43 744.48 807.19 744.93 805.61 745.38 804.02 745.95 802.43 746.4 800.86 746.85 799.29 747.3 797.7 747.76 797.38 747.86"/></g></g><g class="cls-10"><g class="cls-52"><polygon class="cls-12" points="626.83 714.32 828.18 512.87 829.42 512.99 832.03 513.32 834.63 513.55 835.19 513.55 629.78 718.94 628.42 717.04 626.83 714.32"/></g></g><g class="cls-10"><g class="cls-53"><polygon class="cls-12" points="690.86 752.38 837.89 605.24 838.8 607.5 840.16 610.55 696.74 754.2 695.61 753.75 694.04 753.28 692.56 752.84 691.21 752.5 690.86 752.38"/></g></g><g class="cls-10"><g class="cls-54"><polygon class="cls-12" points="625.93 625.9 766.43 485.45 767.34 485.89 769.38 487.02 771.28 488.15 622.32 637.09 623.12 634.38 624.7 629.29 625.93 625.9"/></g></g><g class="cls-10"><g class="cls-55"><polygon class="cls-12" points="631.91 722 840.06 513.89 840.84 513.89 840.73 514.23 839.6 517.28 838.47 520.43 837.45 523.6 837.22 524.28 635.42 726.18 633.95 724.61 632.04 722.13 631.91 722"/></g></g><g class="cls-10"><g class="cls-56"><polygon class="cls-12" points="700.48 755.44 841.75 614.17 843.56 618.69 843.87 619.71 706 757.69 704.53 757.02 702.62 756.34 700.82 755.54 700.48 755.44"/></g></g><g class="cls-10"><g class="cls-57"><polygon class="cls-12" points="620.52 643.98 774.45 490.07 775.91 490.97 778.18 492.43 779.18 493 618.6 653.57 618.6 653.46 619.48 648.83 620.52 644.21 620.52 643.98"/></g></g><g class="cls-10"><g class="cls-58"><polygon class="cls-12" points="637.92 728.78 835.19 531.5 834.51 533.88 833.73 537.49 832.95 541.22 832.95 541.44 641.87 732.51 640.96 731.72 639.59 730.47 638.24 729.24 637.92 728.78"/></g></g><g class="cls-10"><g class="cls-59"><polygon class="cls-12" points="709.5 759.27 845.25 623.42 845.47 624 847.28 629.08 714.47 761.98 712.66 760.97 710.61 759.84 709.5 759.27"/></g></g><g class="cls-10"><g class="cls-60"><polygon class="cls-12" points="617.7 659.55 782.23 495.15 783.15 495.71 785.75 497.63 786.74 498.19 616.91 668.03 617.02 666.55 617.38 662.38 617.7 659.55"/></g></g><g class="cls-10"><g class="cls-61"><polygon class="cls-12" points="644.68 734.78 831.81 547.53 831.7 548.89 831.13 552.84 830.91 556.12 649.19 737.81 648.05 737.03 646.61 736.14 645.13 735.11 644.68 734.78"/></g></g><g class="cls-10"><g class="cls-62"><polygon class="cls-12" points="717.63 763.89 848.52 632.91 848.85 634.38 850.22 638.9 722.14 767.08 721.25 766.38 719.09 764.91 717.63 763.89"/></g></g><g class="cls-10"><g class="cls-63"><polygon class="cls-12" points="616.78 673.22 789.8 500.23 790.93 500.9 793.64 502.38 794.77 502.94 617.02 680.68 616.91 678.64 616.78 674.69 616.78 673.22"/></g></g><g class="cls-10"><g class="cls-64"><polygon class="cls-12" points="652.5 739.63 830.57 561.54 830.44 564.83 830.44 569 830.44 569.22 657.67 742.12 656.99 741.88 655.53 741.21 653.96 740.42 652.5 739.63"/></g></g><g class="cls-10"><g class="cls-65"><polygon class="cls-12" points="725.09 769.21 851.24 642.95 851.58 644.2 852.59 648.83 852.59 649.16 729.15 772.83 727.78 771.58 725.65 769.78 725.09 769.21"/></g></g><g class="cls-10"><g class="cls-66"><polygon class="cls-12" points="798.38 504.46 799.4 504.91 802.11 506.04 803.81 506.72 618.71 691.79 617.71 685.25 798.38 504.46"/></g></g><g class="cls-10"><g class="cls-67"><polygon class="cls-12" points="661.28 743.57 830.68 574.08 831.01 577.46 831.47 581.08 666.92 745.61 666.47 745.38 664.9 744.93 663.31 744.37 661.73 743.79 661.28 743.57"/></g></g><g class="cls-10"><g class="cls-68"><polygon class="cls-12" points="641.4 559.29 722.6 478.22 723.74 477.88 724.98 477.55 726.1 477.32 727.23 477.09 728.34 476.87 729.39 476.75 730.39 476.64 731.41 476.53 732.08 476.4 641.52 566.73 641.63 564.83 641.52 560.75 641.4 559.29"/></g></g><g class="cls-10"><g class="cls-69"><polygon class="cls-12" points="853.49 653.46 854.15 657.98 854.39 660.24 735.47 779.26 734.35 777.89 732.2 775.64 731.75 775.33 853.49 653.46"/></g></g></g><g class="cls-70"><g class="cls-10"><g class="cls-71"><polygon class="cls-12" points="641.42 572.05 641.42 573.29 641.08 577.47 640.63 580.4 744.18 476.97 743.63 476.87 742.61 476.75 741.58 476.64 740.58 476.53 739.66 476.4 738.64 476.3 737.74 476.3 737.29 476.3 641.42 572.05"/></g></g><g class="cls-10"><g class="cls-72"><polygon class="cls-12" points="757.96 761.77 759.31 760.97 761.47 759.84 763.49 758.82 765.52 757.93 767.45 757.02 769.38 756.34 771.28 755.55 772.07 755.32 855.18 672.09 855.18 670.73 855.07 666.55 854.84 664.86 757.96 761.77"/></g></g><g class="cls-10"><g class="cls-73"><polygon class="cls-12" points="619.51 696.14 807.41 508.25 807.54 508.25 810.36 509.15 813.06 509.94 813.28 509.94 621.22 702.01 620.42 699.64 619.51 696.36 619.51 696.14"/></g></g><g class="cls-10"><g class="cls-74"><polygon class="cls-12" points="670.9 746.85 832.15 585.48 832.25 586.04 833.18 590.45 833.51 591.69 676.86 748.43 675.95 748.21 674.39 747.76 672.82 747.3 671.23 746.85 670.9 746.85"/></g></g><g class="cls-10"><g class="cls-75"><polygon class="cls-12" points="639.74 586.49 748.36 477.88 749.49 478.22 750.84 478.67 752.2 479.12 753.69 479.57 754.12 479.8 637.13 596.77 637.81 594.74 638.95 590.45 639.74 586.49"/></g></g><g class="cls-10"><g class="cls-76"><polygon class="cls-12" points="622.67 705.73 817.37 510.95 818.72 511.3 821.43 511.85 823.79 512.19 625.05 710.94 623.91 708.67 622.67 705.73"/></g></g><g class="cls-10"><g class="cls-77"><polygon class="cls-12" points="680.96 749.57 834.63 595.75 835.64 599.03 836.45 601.51 686.94 751.25 686.81 751.25 685.36 750.8 683.78 750.36 682.3 749.9 680.96 749.57"/></g></g><g class="cls-10"><g class="cls-78"><polygon class="cls-12" points="634.43 604.68 757.85 481.26 758.29 481.5 759.99 482.17 761.69 482.95 763.03 483.63 628.89 617.78 630.71 613.26 633.17 607.5 634.43 604.68"/></g></g><g class="cls-10"><g class="cls-51"><polygon class="cls-12" points="797.38 747.86 853.6 691.63 853.27 692.98 852.47 696.36 851.58 699.64 850.78 702.12 808.43 744.48 807.19 744.93 805.61 745.38 804.02 745.95 802.45 746.4 800.86 746.85 799.29 747.3 797.71 747.76 797.38 747.86"/></g></g><g class="cls-10"><g class="cls-79"><polygon class="cls-12" points="626.85 714.32 828.18 512.87 829.42 512.99 832.03 513.32 834.63 513.55 835.2 513.55 629.8 718.94 628.44 717.04 626.85 714.32"/></g></g><g class="cls-10"><g class="cls-80"><polygon class="cls-12" points="690.87 752.38 837.9 605.24 838.81 607.5 840.16 610.55 696.77 754.2 695.63 753.75 694.06 753.28 692.59 752.84 691.24 752.5 690.87 752.38"/></g></g><g class="cls-10"><g class="cls-81"><polygon class="cls-12" points="625.94 625.9 766.44 485.45 767.34 485.89 769.38 487.02 771.28 488.15 622.34 637.09 623.14 634.38 624.72 629.29 625.94 625.9"/></g></g><g class="cls-10"><g class="cls-82"><polygon class="cls-12" points="631.93 722 840.06 513.89 840.85 513.89 840.73 514.23 839.6 517.28 838.48 520.43 837.45 523.6 837.22 524.28 635.44 726.18 633.97 724.61 632.05 722.13 631.93 722"/></g></g><g class="cls-10"><g class="cls-83"><polygon class="cls-12" points="700.49 755.44 841.75 614.17 843.56 618.69 843.87 619.71 706.02 757.69 704.55 757.02 702.64 756.34 700.82 755.54 700.49 755.44"/></g></g><g class="cls-10"><g class="cls-84"><polygon class="cls-12" points="620.54 643.98 774.45 490.07 775.91 490.97 778.18 492.43 779.19 493 618.62 653.57 618.62 653.46 619.52 648.83 620.54 644.21 620.54 643.98"/></g></g><g class="cls-10"><g class="cls-85"><polygon class="cls-12" points="637.92 728.78 835.2 531.5 834.51 533.88 833.73 537.49 832.95 541.22 832.95 541.44 641.89 732.51 640.98 731.72 639.62 730.47 638.26 729.24 637.92 728.78"/></g></g><g class="cls-10"><g class="cls-86"><polygon class="cls-12" points="709.53 759.27 845.25 623.42 845.47 624 847.28 629.08 714.48 761.98 712.68 760.97 710.63 759.84 709.53 759.27"/></g></g><g class="cls-10"><g class="cls-87"><polygon class="cls-12" points="617.71 659.55 782.23 495.15 783.15 495.71 785.75 497.63 786.74 498.19 616.93 668.03 617.04 666.55 617.38 662.38 617.71 659.55"/></g></g><g class="cls-10"><g class="cls-88"><polygon class="cls-12" points="644.69 734.78 831.81 547.53 831.7 548.89 831.13 552.84 830.91 556.12 649.22 737.81 648.08 737.03 646.62 736.14 645.14 735.11 644.69 734.78"/></g></g><g class="cls-10"><g class="cls-89"><polygon class="cls-12" points="717.64 763.89 848.53 632.91 848.86 634.38 850.22 638.9 722.16 767.08 721.27 766.38 719.11 764.91 717.64 763.89"/></g></g><g class="cls-10"><g class="cls-90"><polygon class="cls-12" points="616.8 673.22 789.8 500.23 790.93 500.9 793.65 502.38 794.77 502.94 617.04 680.68 616.93 678.64 616.8 674.69 616.8 673.22"/></g></g><g class="cls-10"><g class="cls-91"><polygon class="cls-12" points="652.5 739.63 830.58 561.54 830.45 564.83 830.45 569 830.45 569.22 657.71 742.12 657.01 741.88 655.55 741.21 653.97 740.42 652.5 739.63"/></g></g><g class="cls-10"><g class="cls-92"><polygon class="cls-12" points="725.12 769.21 851.24 642.95 851.58 644.2 852.59 648.83 852.59 649.16 729.17 772.83 727.81 771.58 725.66 769.78 725.12 769.21"/></g></g><g class="cls-10"><g class="cls-93"><polygon class="cls-12" points="798.15 504.63 799.17 505.08 801.88 506.22 803.59 506.89 618.51 691.96 617.5 685.42 798.15 504.63"/></g></g><g class="cls-10"><g class="cls-94"><polygon class="cls-12" points="661.3 743.57 830.68 574.08 831.01 577.46 831.47 581.08 666.94 745.61 666.49 745.38 664.92 744.93 663.33 744.37 661.75 743.79 661.3 743.57"/></g></g><g class="cls-10"><g class="cls-95"><polygon class="cls-12" points="641.42 559.29 722.6 478.22 723.76 477.88 725 477.55 726.12 477.32 727.25 477.09 728.37 476.87 729.41 476.75 730.41 476.64 731.43 476.53 732.09 476.4 641.54 566.73 641.65 564.83 641.54 560.75 641.42 559.29"/></g></g><g class="cls-10"><g class="cls-96"><polygon class="cls-12" points="853.49 653.46 854.17 657.98 854.39 660.24 735.49 779.26 734.36 777.89 732.21 775.64 731.75 775.33 853.49 653.46"/></g></g></g><path class="cls-5" d="M658.06,531c-.12,2.93-.6,14.73-.9,21.4-.1,4.59,4.28,2.89,4.28,2.89l11.72-4.71s2.83-.79,2.83-5.16.47-20.77.47-20.77.66-4.53-3.06-3.2-12.35,5-12.35,5-2.87.42-3,4.58"/><path class="cls-5" d="M687.81,519.05c-.11,2.94-.61,14.73-.9,21.42-.12,4.59,4.27,2.89,4.27,2.89l11.75-4.73s2.81-.78,2.81-5.15.45-20.77.45-20.77.68-4.54-3-3.19-12.39,5-12.39,5-2.84.43-3,4.57"/><path class="cls-5" d="M781.31,530.42c.1,2.92.6,14.72.9,21.41.1,4.58-4.27,2.87-4.27,2.87L766.19,550s-2.81-.78-2.81-5.15-.46-20.75-.46-20.75-.67-4.55,3-3.21,12.38,5,12.38,5,2.86.43,3,4.59"/><path class="cls-5" d="M751.56,518.45c.11,2.93.62,14.73.9,21.41.12,4.58-4.29,2.88-4.29,2.88L736.46,538s-2.82-.78-2.82-5.16-.47-20.76-.47-20.76-.66-4.54,3-3.19,12.38,5,12.38,5,2.84.42,3,4.58"/><path class="cls-3" d="M657.87,531c-.09,2.93-.6,14.73-.88,21.4-.13,4.59,4.25,2.89,4.25,2.89L673,550.6s2.84-.79,2.84-5.16.45-20.77.45-20.77.67-4.53-3-3.2-12.39,5-12.39,5-2.87.42-3,4.58"/><path class="cls-3" d="M687.62,519.05c-.1,2.94-.6,14.73-.89,21.42-.11,4.59,4.27,2.89,4.27,2.89l11.74-4.73s2.81-.78,2.81-5.15.47-20.77.47-20.77.67-4.54-3-3.19-12.37,5-12.37,5-2.86.43-3,4.57"/><path class="cls-3" d="M781.13,530.42c.11,2.92.62,14.72.89,21.41.13,4.58-4.27,2.87-4.27,2.87L766,550s-2.81-.78-2.81-5.15-.47-20.75-.47-20.75-.67-4.55,3-3.21,12.39,5,12.39,5,2.86.43,3,4.59"/><path class="cls-3" d="M751.38,518.45c.1,2.93.62,14.73.89,21.41.11,4.58-4.27,2.88-4.27,2.88L736.26,538s-2.83-.78-2.83-5.16S733,512.1,733,512.1s-.66-4.54,3-3.19,12.38,5,12.38,5,2.84.42,3,4.58"/><g class="cls-97"><g class="cls-98"><rect class="cls-99" x="760.72" y="447.25" width="91.79" height="4.5"/></g></g><g class="cls-100"><g class="cls-101"><rect class="cls-102" x="759.72" y="430.88" width="49.71" height="13.83"/></g></g><g class="cls-103"><g class="cls-104"><rect class="cls-105" x="759.45" y="455.23" width="49.75" height="13.83"/></g></g><g class="cls-106"><g class="cls-107"><rect class="cls-108" x="586.27" y="446.37" width="91.8" height="4.5"/></g></g><g class="cls-109"><g class="cls-110"><rect class="cls-111" x="630.94" y="431.71" width="49.76" height="13.83"/></g></g><g class="cls-112"><g class="cls-113"><rect class="cls-114" x="628.58" y="453.26" width="49.76" height="13.83"/></g></g><polygon class="cls-5" points="556.91 858.83 562.66 853.66 878.04 853.66 884.41 858.85 556.91 858.83"/><path class="cls-3" d="M718.25,741.76V415.32s-2.14-10.43,1.31-7.86h.15c3.49-2.57,1.6,7.57,1.6,7.57V741.66Z"/><path class="cls-115" d="M608.33,994.2l2.55-.82c.53,1.7.8,2.55,1.34,4.25.88-2.15,1.33-3.22,2.25-5.37l3-.91c-1.2,2.77-1.78,4.15-2.92,6.91,2.85,2.12,4.25,3.18,7,5.35l-2.89.86c-2.24-1.72-3.37-2.56-5.67-4.24.7,2.19,1,3.28,1.74,5.47l-2.46.79c-1.59-4.92-2.39-7.37-4-12.29"/><path class="cls-115" d="M620.29,989.94a1.66,1.66,0,0,1,1.24.13,1.49,1.49,0,0,1,.61,2.11,1.59,1.59,0,0,1-1,.75,1.64,1.64,0,0,1-1.25-.12,1.5,1.5,0,0,1-.77-.94,1.39,1.39,0,0,1,.16-1.17,1.63,1.63,0,0,1,1-.76m-.13,4.14,2.44-.7c1,3.68,1.56,5.51,2.61,9.2-1,.26-1.44.4-2.39.68-1.07-3.67-1.6-5.51-2.66-9.18"/><path class="cls-115" d="M624.83,992.76l2.45-.67c.1.38.16.57.26.94a6.2,6.2,0,0,1,1.26-1.32,3.94,3.94,0,0,1,1.33-.62,3.56,3.56,0,0,1,2.72.33,3.24,3.24,0,0,1,1.46,2.2c.6,2.45.91,3.68,1.52,6.13-1,.23-1.42.36-2.37.6-.42-1.62-.63-2.43-1-4.06a10.12,10.12,0,0,0-.72-2.15,1.52,1.52,0,0,0-.76-.69,1.57,1.57,0,0,0-1,0,1.88,1.88,0,0,0-1.15.8,2.58,2.58,0,0,0-.39,1.5,11.19,11.19,0,0,0,.39,1.9l1,3.7c-1,.26-1.44.38-2.39.65-1-3.68-1.52-5.53-2.54-9.21"/><path class="cls-115" d="M643.19,988.21l2.47-.54,1.7,8a5.45,5.45,0,0,1-.23,3.7,5.1,5.1,0,0,1-3.6,2.38,7.36,7.36,0,0,1-2.43.2,4.46,4.46,0,0,1-1.84-.62,4.2,4.2,0,0,1-1.37-1.38l2.65-.63a2.11,2.11,0,0,0,1,.38,4.07,4.07,0,0,0,1.36-.09,3.62,3.62,0,0,0,1.49-.65,1.78,1.78,0,0,0,.66-.94,7.32,7.32,0,0,0-.1-1.64,14.85,14.85,0,0,1-1.14,1.18,4.86,4.86,0,0,1-1.52.63,4.66,4.66,0,0,1-3.59-.59,4.81,4.81,0,0,1-2.16-3.09,4.73,4.73,0,0,1,.58-3.89,4.48,4.48,0,0,1,2.85-2,4.1,4.1,0,0,1,1.67-.07,5.12,5.12,0,0,1,1.74.63c-.1-.41-.14-.62-.23-1m-2.13,2.52a2.67,2.67,0,0,0-1.74,1.18,2.77,2.77,0,0,0,.9,3.76,2.75,2.75,0,0,0,2.08.31,2.57,2.57,0,0,0,1.7-1.15,2.88,2.88,0,0,0-.84-3.81,2.73,2.73,0,0,0-2.1-.29"/><path class="cls-115" d="M657.17,982l2.61-.46c3,4.75,4.39,7.14,7.19,11.93l-2.59.41-1.45-2.46c-2.16.36-3.24.54-5.38.93-.24,1.13-.36,1.69-.59,2.81l-2.59.49c1-5.46,1.6-8.19,2.8-13.65m1.9,3.15c-.42,1.87-.62,2.8-1,4.67l3.54-.61c-1-1.63-1.5-2.44-2.52-4.06"/><path class="cls-115" d="M669.19,979.76c.27,1.88.4,2.82.67,4.7a4.58,4.58,0,0,1,1.33-1.17,4.3,4.3,0,0,1,1.64-.55,4.42,4.42,0,0,1,3.5,1,5.36,5.36,0,0,1,.84,7.15,4.53,4.53,0,0,1-3.08,1.85,4.47,4.47,0,0,1-1.6-.08,4.76,4.76,0,0,1-1.58-.76c.06.4.09.6.14,1l-2.41.36c-.79-5.24-1.18-7.86-2-13.1l2.51-.37M672.6,985a2.64,2.64,0,0,0-1.84,1,2.68,2.68,0,0,0-.49,2.11,2.83,2.83,0,0,0,1.06,1.94,2.64,2.64,0,0,0,2,.51,2.59,2.59,0,0,0,1.79-1.05,3,3,0,0,0-.5-4,2.61,2.61,0,0,0-2-.52"/><path class="cls-115" d="M686.68,977.71l2.53-.23c.46,5.28.68,7.91,1.14,13.19l-2.45.23c0-.41,0-.61-.09-1a4.92,4.92,0,0,1-1.35,1.1,4.26,4.26,0,0,1-1.53.45,4.5,4.5,0,0,1-3.42-1.08,5.39,5.39,0,0,1-.84-7.16,4.42,4.42,0,0,1,3.17-1.76,4.28,4.28,0,0,1,1.72.16,4.54,4.54,0,0,1,1.56.83c-.18-1.89-.27-2.83-.44-4.72m-2.1,5.89a2.57,2.57,0,0,0-1.85,1,3,3,0,0,0,.45,4,2.51,2.51,0,0,0,2,.6,2.6,2.6,0,0,0,1.84-1,2.81,2.81,0,0,0,.58-2.12,2.75,2.75,0,0,0-1-1.94,2.6,2.6,0,0,0-2-.57"/><path class="cls-115" d="M692.06,981l2.55-.19c.13,1.83.19,2.75.33,4.59a6.19,6.19,0,0,0,.32,1.85,1.59,1.59,0,0,0,.66.76,1.75,1.75,0,0,0,1.06.22,1.79,1.79,0,0,0,1-.35,1.65,1.65,0,0,0,.59-.88,6.36,6.36,0,0,0,0-1.77c-.11-1.87-.16-2.8-.28-4.67l2.52-.15c.08,1.62.13,2.43.22,4a10.1,10.1,0,0,1-.22,3.44,3.8,3.8,0,0,1-1.37,1.81,4.55,4.55,0,0,1-2.4.75,4.48,4.48,0,0,1-2.65-.52,3.81,3.81,0,0,1-1.55-1.84,11.55,11.55,0,0,1-.53-3.14c-.13-1.58-.19-2.37-.32-4"/><path class="cls-115" d="M703,976.57l2.55-.11c.21,5.29.32,7.93.53,13.23l-2.45.11c-.25-5.3-.37-7.94-.63-13.23"/><path class="cls-115" d="M715.35,979.88l2.52,0c0,3.82,0,5.73.06,9.56-1,0-1.47,0-2.45,0,0-.41,0-.61,0-1a4.89,4.89,0,0,1-1.42,1,4.22,4.22,0,0,1-1.56.32,4.5,4.5,0,0,1-3.32-1.35,5,5,0,0,1-1.52-3.52,5,5,0,0,1,1.25-3.67,4.57,4.57,0,0,1,5-1.21,4.56,4.56,0,0,1,1.48.95c0-.42,0-.64,0-1m-2.61,2a2.57,2.57,0,0,0-1.91.83,3.08,3.08,0,0,0,.12,4,2.54,2.54,0,0,0,1.92.75,2.57,2.57,0,0,0,1.91-.81,2.83,2.83,0,0,0,.74-2.07,2.62,2.62,0,0,0-2.78-2.75"/><path class="cls-115" d="M720,979.84c3.08,0,4.62,0,7.7.08-1.87,3-2.79,4.47-4.58,7.46l4.16.06c0,.81,0,1.22,0,2-3.16-.07-4.74-.08-7.9-.07,1.75-3,2.65-4.52,4.49-7.51l-3.83,0v-2"/><path class="cls-115" d="M730.21,976.05a1.63,1.63,0,0,1,1.14.49,1.45,1.45,0,0,1,.43,1.12,1.47,1.47,0,0,1-.5,1.08,1.58,1.58,0,0,1-1.14.42,1.66,1.66,0,0,1-1.14-.49,1.51,1.51,0,0,1-.45-1.14,1.43,1.43,0,0,1,.5-1.06,1.62,1.62,0,0,1,1.16-.42m-1.37,3.9,2.51.07c-.12,3.81-.17,5.73-.29,9.55l-2.45-.07c.09-3.82.14-5.74.23-9.55"/><path class="cls-115" d="M733.22,980.08c3.08.11,4.62.18,7.69.36-2,2.9-2.95,4.36-4.85,7.29l4.16.21c-.05.81-.07,1.22-.11,2-3.17-.17-4.75-.25-7.91-.36,1.87-3,2.83-4.41,4.77-7.34l-3.82-.16c0-.8,0-1.21.07-2"/><path class="cls-115" d="M748.06,977.55l2.62.21c-.28,3.33-.43,5-.71,8.33a4.38,4.38,0,0,0,.06,1.54,1.59,1.59,0,0,0,.58.76,2,2,0,0,0,1.06.36,2.17,2.17,0,0,0,1.18-.19,1.61,1.61,0,0,0,.74-.69,5.45,5.45,0,0,0,.35-1.73c.3-3.21.47-4.81.77-8l2.61.26-.8,7.67a10.7,10.7,0,0,1-.5,2.66,3.77,3.77,0,0,1-1,1.37,4.08,4.08,0,0,1-1.56.89,5,5,0,0,1-1.94.16,4.79,4.79,0,0,1-2.44-.86,3.82,3.82,0,0,1-1.39-1.73,8.58,8.58,0,0,1-.22-3.31c.24-3.07.37-4.61.6-7.68"/><path class="cls-115" d="M759.68,982l2.51.28c0,.39-.07.59-.11,1a6,6,0,0,1,1.66-.77,4,4,0,0,1,1.45-.09,3.52,3.52,0,0,1,2.39,1.31,3.32,3.32,0,0,1,.53,2.59l-.85,6.27c-1-.14-1.45-.21-2.41-.33.21-1.66.32-2.49.53-4.15a9.92,9.92,0,0,0,.14-2.27,1.55,1.55,0,0,0-.45-.92,1.61,1.61,0,0,0-.94-.42,2,2,0,0,0-1.36.32,2.58,2.58,0,0,0-.91,1.26,10.35,10.35,0,0,0-.34,1.91l-.45,3.8-2.44-.27c.42-3.8.62-5.7,1-9.5"/><path class="cls-115" d="M772.51,979.7a1.56,1.56,0,0,1,1.07.62,1.45,1.45,0,0,1,.32,1.16,1.51,1.51,0,0,1-.63,1,1.67,1.67,0,0,1-2.26-.34,1.52,1.52,0,0,1-.32-1.18,1.42,1.42,0,0,1,.63-1,1.61,1.61,0,0,1,1.19-.28m-1.82,3.71,2.51.36c-.57,3.79-.85,5.67-1.42,9.45l-2.43-.35c.54-3.79.81-5.67,1.34-9.46"/><path class="cls-115" d="M774.4,984l2.55.4c.64,2.39,1,3.58,1.58,6,1.36-2.06,2.05-3.08,3.44-5.13l2.53.45c-2.38,3.45-3.55,5.19-5.84,8.68l-1.57-.27c-1-4-1.57-6.06-2.69-10.1"/><path class="cls-115" d="M794.71,993.26c-3.13-.67-4.71-1-7.86-1.61a2.56,2.56,0,0,0,.61,1.77,2.9,2.9,0,0,0,1.76,1,3.35,3.35,0,0,0,2.53-.44l1.85,1.36a4.84,4.84,0,0,1-2.16,1.17,6.08,6.08,0,0,1-2.62,0,5.29,5.29,0,0,1-3.43-2.12,4.81,4.81,0,0,1-.79-3.76,4.86,4.86,0,0,1,2.13-3.3,5.08,5.08,0,0,1,3.93-.71,5.31,5.31,0,0,1,3.5,2.2,5,5,0,0,1,.66,4c-.05.18-.06.27-.11.45m-2.05-2.37a2.4,2.4,0,0,0-.71-1.47,2.89,2.89,0,0,0-1.56-.83,3.14,3.14,0,0,0-1.93.19,3.1,3.1,0,0,0-1.14,1.05c2.14.41,3.2.61,5.34,1.06"/><path class="cls-115" d="M797.29,988.22l2.12.48c-.1.46-.16.7-.27,1.17a2.75,2.75,0,0,1,1.16-.85,2.44,2.44,0,0,1,1.34-.07,2.55,2.55,0,0,1,.94.48l-1.23,1.82a2,2,0,0,0-.66-.36,1.14,1.14,0,0,0-1.12.45,6,6,0,0,0-1,2.52c0,.18-.05.28-.09.47-.35,1.5-.52,2.25-.86,3.76l-2.39-.54,2-9.33"/><path class="cls-115" d="M809.49,992.51c-.76.41-1.13.63-1.89,1a2.65,2.65,0,0,0-1.46-1.29,1.12,1.12,0,0,0-.68,0,.53.53,0,0,0-.34.36.52.52,0,0,0,.06.38,2.56,2.56,0,0,0,.63.61l.78.65a5.29,5.29,0,0,1,1.59,1.84,2.64,2.64,0,0,1,.11,1.76,2.71,2.71,0,0,1-1.47,1.81,3.79,3.79,0,0,1-2.71.2,4.22,4.22,0,0,1-3-2.4l1.87-1.21a3.28,3.28,0,0,0,.8,1,2.34,2.34,0,0,0,.94.55,1.29,1.29,0,0,0,.83,0,.65.65,0,0,0,.42-.44c.09-.36-.17-.79-.79-1.31l-.73-.59c-1.38-1.14-1.94-2.27-1.67-3.41a2.45,2.45,0,0,1,1.35-1.67,3.43,3.43,0,0,1,2.49-.22,4.38,4.38,0,0,1,1.7.84,4.25,4.25,0,0,1,1.14,1.51"/><path class="cls-115" d="M813.91,988.22a1.65,1.65,0,0,1,1,.75,1.49,1.49,0,0,1-.57,2.12,1.64,1.64,0,0,1-1.21.14,1.62,1.62,0,0,1-1-.75,1.49,1.49,0,0,1-.17-1.2,1.4,1.4,0,0,1,.73-.92,1.64,1.64,0,0,1,1.23-.14m-2.24,3.47c1,.27,1.47.39,2.45.67-1,3.68-1.49,5.52-2.5,9.22-1-.27-1.44-.4-2.39-.65,1-3.7,1.46-5.54,2.44-9.24"/><path class="cls-115" d="M817.6,989.65l2.46.71c-.38,1.35-.58,2-1,3.38l1.46.42-.58,2-1.45-.42c-.82,2.88-1.23,4.32-2.06,7.21-1-.27-1.42-.42-2.38-.68.8-2.89,1.21-4.33,2-7.22l-1.25-.34.55-2,1.26.36c.38-1.36.56-2,1-3.4"/><path class="cls-115" d="M820.77,994.23l2.5.73c.32,2.61.47,3.9.76,6.5,1.8-2,2.71-2.92,4.55-4.86l2.49.8c-4,4.18-6,6.29-9.89,10.57l-2.43-.73c1.25-1.39,1.88-2.08,3.15-3.45-.41-3.83-.63-5.74-1.13-9.56"/><path class="cls-5" d="M718.25,459l-24,10.68c-7.87,3.16-10.6,1-10.77-7.24s.13-25.79.29-29.19c.24-4.4,2.74-5.78,2.74-5.78L708,415c5.28-2.81,10.19.61,10.19.61Z"/><path class="cls-3" d="M745.85,435.46c.08,2.47.5,12.37.76,18,.08,3.85-3.61,2.42-3.61,2.42l-9.86-4s-2.38-.64-2.38-4.32-.38-17.43-.38-17.43-.58-3.81,2.56-2.68,10.4,4.17,10.4,4.17,2.4.35,2.51,3.83"/><path class="cls-3" d="M693.53,436.08c-.09,2.46-.52,12.37-.79,18-.08,3.84,3.63,2.42,3.63,2.42l9.86-4s2.39-.68,2.39-4.34.37-17.43.37-17.43.57-3.81-2.55-2.68S696,432.23,696,432.23s-2.4.36-2.49,3.85"/><path class="cls-5" d="M721.21,459l24,10.68c7.88,3.16,10.61,1,10.76-7.24s-.11-25.79-.28-29.19c-.23-4.4-2.74-5.78-2.74-5.78L731.49,415c-5.28-2.81-10.18.61-10.18.61Z"/><path class="cls-3" d="M745.92,436.08c.1,2.46.53,12.37.8,18,.08,3.84-3.62,2.42-3.62,2.42l-9.86-4s-2.4-.68-2.4-4.34-.38-17.43-.38-17.43-.56-3.81,2.55-2.68,10.42,4.16,10.42,4.16,2.4.36,2.49,3.85"/><path class="cls-3" d="M719.84,745.05l-3.94-5c-12.63-15.77-21.7-43.62-22.86-60.36-.88-12.88,3.08-20.56,5.23-23.73-10.45-49.46,16.83-106.58,18-109l3.34-5.12,3.46,5.12c1.19,2.43,28.45,59.55,18,109,2.16,3.17,6.12,10.85,5.22,23.73-1.15,16.71-10.2,44.49-22.8,60.3Zm-.13-6.16.82-1.14c11.54-14.43,20.89-41.14,22.08-58.35,1.07-15.7-5.52-22.6-5.52-22.6,11.3-49.14-17.35-108.27-17.35-108.27h-.14S691,607.66,702.26,656.8c0,0-6.61,6.9-5.53,22.6,1.2,17.21,10.54,43.92,22.08,58.35Z"/><path class="cls-5" d="M729.22,420.64s1.4-8.61,1.4-10.53c0-10.37-5-19.13-11-19.13s-10.95,8.76-10.95,19.13c0,1.92.87,8.71,1.19,10.53l-3.49-.19a43.21,43.21,0,0,1-1.24-10.34c0-12.51,6.49-22.65,14.49-22.65s14.48,10.14,14.48,22.65a43.21,43.21,0,0,1-1.24,10.34Z"/><path class="cls-5" d="M718.15,485.65a2.66,2.66,0,0,1-1.67,1.93l-24.88,10.9c-.92.4-1.67.19-1.67-.47V475.18a2.64,2.64,0,0,1,1.67-1.93l24.88-10.9c.92-.4,1.67-.2,1.67.47Z"/><path class="cls-5" d="M721.68,485.65a2.63,2.63,0,0,0,1.67,1.93l24.88,10.9c.92.4,1.67.19,1.67-.47V475.18a2.64,2.64,0,0,0-1.67-1.93l-24.88-10.9c-.93-.4-1.67-.2-1.67.47Z"/><g class="cls-116"><g class="cls-117"><path class="cls-5" d="M601.6,909.56a47.85,47.85,0,0,1-.14,9.05c-.3,1.87.74,1.06.74,1.06,4.84-5.53,3.85-18.95,2.87-28.49-.55-5.42-.72-9.68-.81-10.2-.27-1.52-5,8.53-4.22,12.47.44,2.38,1.08,9.43,1.56,16.11M539.29,929c.44.26,6.38,2.86,7,3.14s.81-.42.81-.42,3.14-6.87,3.28-7.41-.7-.91-.7-.91-6.61-3.56-7.16-3.73-.88.77-.88.77l-2.84,6.73a1.58,1.58,0,0,0,.47,1.83M518.1,906.43s3.15-6.88,3.26-7.42-.68-.92-.68-.92-6.6-3.55-7.16-3.74-.86.79-.86.79l-2.87,6.75a1.48,1.48,0,0,0,.51,1.79c.43.26,6.4,2.87,7,3.16a.6.6,0,0,0,.81-.41m113.62-12.9c-1.32,3.12-7.91,6.88-7.91,6.88s-1.33,1.4,1.05.48,13.72-6.15,12.07-11.41-11.35-2.13-11.35-2.13l-3.48,5.21s10.91-2.14,9.62,1m203,28.81c.42.51.92,0,.92,0s5.78-4.88,6.12-5.29-.24-1.15-.24-1.15-4.44-6-4.87-6.41-1.14.31-1.14.31l-5.45,4.86a1.61,1.61,0,0,0-.34,1.88c.28.39,4.59,5.31,5,5.83M668.24,883.83c.5-.35.63-1-1.79.23-1.37.67-12.78,5.71-15.76,7.07-2.57,1.18-5.17,5.53-5.17,5.53,1.36-.52,15-6.56,16.63-7.4s6.09-5.43,6.09-5.43M523.93,962.68s3.13-6.89,3.27-7.39-.71-.95-.71-.95-6.6-3.56-7.16-3.73-.87.79-.87.79l-2.87,6.75a1.56,1.56,0,0,0,.51,1.81c.4.25,6.37,2.87,7,3.14s.84-.42.84-.42m312.28-53.87a.6.6,0,0,0,.92,0s5.78-4.87,6.14-5.28-.23-1.15-.23-1.15-4.49-6-4.91-6.42-1.09.33-1.09.33l-5.48,4.86a1.51,1.51,0,0,0-.32,1.86c.28.42,4.55,5.29,5,5.84m-117.38,6.45c13.14-1.3,16.29-7.49,17.27-10,1.08-2.71-2.82-3.7-4.72-4.4s-1.73-1.76-1.73-1.76c.16-1.5,5.12-2.08,5.12-2.08s3.21-3.73,3.65-4.88-.94-1-.94-1c-2.27.24-11.66,5.16-14.11,7.85s-1.5,4.63,1.07,5.9,5.18,1.1,5.24,3.26c0,1.35-7.53,4.87-10.42,5.8s-.43,1.3-.43,1.3m-178.62-3.42c1.32-6,1.77-11.45-.21-8.83,0,0-1.27,5-2.81,6-1.9,1.14-6.05,1.76-9,7.78s-1.87,13-6.91,19.08c-3.61,4.35-8.52,7.09-9.44,7.86-.47.38-.95,1.7.89,1.58,3.15-.2,9.82-2.22,10.79-2.95,1.53-1.16,3-5,3.91-9.37s.06-8,3.69-10.67,7.55-3.64,9.07-10.47M881.64,929a63.84,63.84,0,0,0-5.24,4.46c-3.52-.71-8.2,11.16-18.88,12.12a4.16,4.16,0,0,1-3-.73c3.68-3.27,4.58-4.08,5-7.48,1-7.58-14.6-6.31-17.66-3.66-2.12,1.82-.83,2.31-.83,2.31,4.7-.12,6,3.82,7.32,8.29-3.49,1.38-4.68.76-6.62-.84-1.27-1-2.44-2.87-6.13-3.46a14.62,14.62,0,0,0-7.59,1.37c-5.12,2.29-8.45,7.14-9.61,8.22-1.58,1.47-.2,1.43-.2,1.43,6.23-3.37,11.45-3.25,13.15-2.7.84.28,1.35,2.23,2.7,3.12a10,10,0,0,0,5.56,1,29.85,29.85,0,0,0,10.58-4.25c2.34,2.91,5.56,3.39,6.69,3.09,6-1.44,12.9-8.24,15.21-8.84,3.4-.84,6.37,3.41,6.37,3.41s2.29.61,6.17-3.14,1.25-8.55.56-9.75-2.91-4.17-3.62-3.94M903,966.86c-.45-.41-1.13.32-1.13.32L896.37,972a1.56,1.56,0,0,0-.34,1.87c.27.41,4.55,5.32,5,5.82s.91,0,.91,0,5.79-4.86,6.13-5.27-.22-1.14-.22-1.14-4.5-6-4.89-6.43m21.42-19.33a16.86,16.86,0,0,1-2.87-1.93c-1.42-1.58-2.45-3.66-7.16-4.21-5.6-.64-16.34,9.91-16.34,9.91-.79-1.22-3.94-2.38-2.13-9.13,2.34-8.8,10.78-19.52,11.74-21.74s-7.62,4.86-7.62,4.86a195.87,195.87,0,0,0-10.51,21.11c-3.53,8.74.41,13.19,2.35,14.35,13.5,8,31.47-9.77,32.41-10.58s1.4-2.24.13-2.64m-25.09,4.65s7.57-5.78,10.14-6.19c4-.63,7.6,5.18,7.6,5.18s-10.47,8.51-17.74,1m-370.94,17s-6.6-3.55-7.16-3.72-.88.76-.88.76l-2.85,6.75a1.54,1.54,0,0,0,.5,1.83c.42.22,6.39,2.85,7,3.12a.61.61,0,0,0,.84-.39s3.14-6.9,3.27-7.42-.69-.93-.69-.93m283.83-57.06c-.22,2.39-1.54,9.32-2.93,15.93a48.42,48.42,0,0,1-2.64,8.63c-.81,1.73.41,1.24.41,1.24,6.16-4,9-17.16,10.63-26.58.94-5.37,2-9.5,2-10.07.19-1.49-7.07,6.85-7.49,10.85m-45.27-9.93a54,54,0,0,1,9.15-5.87c10.61-5.5,25.71-11.8,30.78-19.59,0,0,.87-1.13-1.29.24-1,.61-8.3,4.11-16.54,7.83-5.52,2.49-12.18,5.53-17.36,9.36-4.09,3.08-7.19,6.76-8.54,10,0,0-3.88,11.87-5.89,14.67s-6.72,7-19.47,8.28c0,0-25,2-39.65-.91-6-1.17-7.79-3.75-9-7.25s-.11-8.12-.11-8.12-.39-1.5-1.29.79-6.08,15.71-.68,20.5c2.85,2.51,5.76,4.94,28.07,5.4,15,.32,27-2.55,30.69-4.09,8.75-3.72,11-10.27,11-10.27s.75-.74.49,1c0,0-7.22,18.28,5.26,19.33,0,0,5.62-.78,9.48-10.2.47,3.35,2.06,6,6.2,6.65,6.15,1,7.41-6.43,10.68-7.43s7.82,3.79,7.82,3.79,1.33,0,3.76-5-2.61-7.13-4-9a4.8,4.8,0,0,1-.42-3.4c3.58-4.39,4.27-10.51,5.08-18.42.55-5.43,1.25-9.64,1.29-10.2,0-1.5-5.23,7.4-6.06,11.32-.51,2.49-.48,3.07-1.36,9.74a47.14,47.14,0,0,1-2,8.83,1.76,1.76,0,0,0-.17,1c-1.82,2.06-5.66,6.86-6.79,8.43-1.26,1.84-9.51,4.39-9.39-2.13.23-10.57,4.54-24,4.7-25.49s-.87-.26-.87-.26l-6.35,9.77s-1.86,10.35-2.25,16.1c-.56,2.58-2,7.09-5.63,7.29-3.85.24-8.1-2.85-4.47-14.82s5.12-17.86,5.12-17.86M645.82,943.08s-6.6-3.54-7.17-3.75-.88.81-.88.81l-2.86,6.72a1.55,1.55,0,0,0,.51,1.83c.41.24,6.38,2.88,7,3.14s.84-.43.84-.43,3.14-6.86,3.26-7.4-.68-.92-.68-.92m-61.49-61.39c-.28-1.49-5,8.57-4.23,12.51.44,2.35,1.1,9.38,1.58,16.11a93.94,93.94,0,0,1-.16,10c-1.42,2.65-3.95,5.52-8.11,4.8,3.67-6.16,1.8-9.69.3-10.67-7-4.54-15.25,2.45-17.75,5.22s-.36,3.35-.36,3.35c3-2.09,6.51,0,9.52,2.49-2.31,1.57-7.39,4.18-10.57,7.18-8.08,7.66-6.63,13.53-12,22.54a41.5,41.5,0,0,1-10.13,11.29c-3.17,2.75-.73,1.92-.73,1.92C547.8,962.5,544.79,954,554.17,943c4.63-5.42,10.37-7.7,13.8-11.11l2-2.21a5.59,5.59,0,0,0,.58.35c11.78,4.47,14.22-9.3,14.77-12.59,1.32-8,.4-19.45-.25-25.5-.55-5.4-.69-9.68-.79-10.23m87.25,28.2c-.94.62-6.07,6.34-10.31,5.53a13.14,13.14,0,0,1-4.95-1.82c-2.11-1.29-3.81-3.64-3.91-4.45-.2-1.57,1.38-2.84,2.64-3.46a6.06,6.06,0,0,1,5.69.6c2,1.39,3.88,1.12,4.55.44a3,3,0,0,0,.87-3.83c-.51-1.09-4.33-6.06-10.49-1.66s-10.92,13.33-10.86,14,.44,5.56,9.65,7.67c0,0-2.77,4.25-7.63,4.53-2.45.16-3.53-1.45-4.59-2.29-1.69-1.36-5.16,1-7,2.89-2.63,2.62-5.3,4.9-9.63,4.71-5-.22-6.75-2.84-7.41-5.15s1.42-8.53,1.65-9.26-1-.32-1.17,0-3.84,8.87-6.5,12.34-7,8.69-17.08,13.51c-2.25,1.08,1.5.74,1.5.74,4-.18,5-.75,8.5-1.13,4.18-.47,7.44-5.58,8.91-8.64.42-.92.81-.07.81-.07-.43,1.7.52,6.51,6.54,7.14,7.22.78,12.93-7.5,14.13-8.88,3.62-4.17,6.23,1.68,9.8.47,3.32-1.14,6.76-4.12,8.24-5.27,2.66-2,5.16-4.63,7.75-6.77a126.24,126.24,0,0,0,11.24-10.38c.84-.88,0-2.13-1-1.5m188.77,4.38c1.53-.12,5.68-1.92,11.46-3.19a32.46,32.46,0,0,1,11.71-1c2.22.25,2.81.15,1.57-1.4a8.48,8.48,0,0,0-6.27-3.23,16.67,16.67,0,0,0-7.79,1.66s-1.74-5.08-5.67-4.59c-3.05.39-3.26,2.36-2.78,2.36s7.16.72-1.67,7.51c-1.26,1-2.53,2-.56,1.84"/></g></g><path class="cls-3" d="M601.27,906.26a46.55,46.55,0,0,1-.15,9c-.29,1.87.75,1.07.75,1.07,4.83-5.53,3.85-19,2.87-28.49-.56-5.42-.72-9.69-.81-10.2-.28-1.52-5,8.53-4.22,12.47.44,2.37,1.08,9.42,1.56,16.1M539,925.68c.43.25,6.38,2.86,7,3.13s.82-.41.82-.41,3.14-6.88,3.28-7.41-.7-.92-.7-.92-6.6-3.55-7.15-3.73-.89.78-.89.78l-2.85,6.74a1.58,1.58,0,0,0,.49,1.82m-21.19-22.54s3.14-6.88,3.26-7.42-.69-.93-.69-.93-6.6-3.54-7.16-3.74-.86.8-.86.8l-2.88,6.74a1.52,1.52,0,0,0,.52,1.8c.43.25,6.4,2.87,7,3.16a.61.61,0,0,0,.82-.41m113.61-12.91c-1.31,3.13-7.91,6.89-7.91,6.89s-1.34,1.39,1,.48,13.73-6.15,12.08-11.41-11.35-2.14-11.35-2.14l-3.48,5.22s10.91-2.15,9.62,1M834.4,919c.42.52.92,0,.92,0s5.78-4.88,6.12-5.29-.23-1.16-.23-1.16-4.46-6-4.88-6.41-1.14.32-1.14.32l-5.45,4.86a1.64,1.64,0,0,0-.34,1.88c.29.39,4.59,5.3,5,5.82m-166.49-38.5c.5-.35.63-1-1.79.23-1.37.67-12.78,5.7-15.76,7.07-2.57,1.18-5.16,5.53-5.16,5.53,1.35-.53,15-6.56,16.63-7.41s6.08-5.42,6.08-5.42M523.6,959.39s3.13-6.89,3.27-7.4-.7-.94-.7-.94-6.61-3.57-7.17-3.73-.88.78-.88.78l-2.86,6.76a1.56,1.56,0,0,0,.51,1.81c.4.24,6.37,2.86,7,3.13s.84-.41.84-.41m312.28-53.88a.61.61,0,0,0,.93,0s5.76-4.89,6.13-5.3-.23-1.14-.23-1.14-4.49-6-4.92-6.43-1.08.34-1.08.34l-5.49,4.85a1.52,1.52,0,0,0-.31,1.87c.28.41,4.55,5.29,5,5.83M718.5,912c13.14-1.31,16.29-7.49,17.27-10,1.07-2.72-2.83-3.7-4.73-4.4s-1.72-1.77-1.72-1.77c.16-1.49,5.12-2.07,5.12-2.07s3.21-3.73,3.65-4.9-.94-1-.94-1c-2.27.24-11.66,5.15-14.11,7.85s-1.5,4.63,1.06,5.89,5.19,1.11,5.25,3.26c0,1.35-7.53,4.88-10.42,5.8s-.43,1.31-.43,1.31m-178.62-3.42c1.32-5.95,1.77-11.46-.2-8.84,0,0-1.28,5.06-2.82,6-1.9,1.15-6.05,1.77-9,7.79s-1.86,13-6.9,19.08c-3.61,4.35-8.52,7.08-9.45,7.85-.46.39-.94,1.71.9,1.59,3.15-.21,9.81-2.22,10.79-3,1.53-1.16,3-5,3.91-9.36s.06-8,3.69-10.67,7.55-3.64,9.07-10.47m341.43,17.2a61.93,61.93,0,0,0-5.24,4.46c-3.51-.72-8.2,11.16-18.87,12.12a4.17,4.17,0,0,1-3-.74c3.68-3.27,4.58-4.08,5-7.48,1-7.57-14.6-6.3-17.66-3.66-2.12,1.83-.83,2.32-.83,2.32,4.7-.13,6,3.8,7.31,8.28-3.48,1.39-4.67.77-6.6-.83-1.28-1-2.46-2.88-6.14-3.46a14.62,14.62,0,0,0-7.59,1.37c-5.12,2.29-8.45,7.13-9.61,8.22-1.58,1.46-.19,1.41-.19,1.41,6.22-3.36,11.44-3.23,13.14-2.69.84.29,1.35,2.24,2.7,3.13a10,10,0,0,0,5.56,1,29.48,29.48,0,0,0,10.58-4.25c2.34,2.91,5.56,3.39,6.69,3.09,6-1.44,12.9-8.23,15.21-8.83,3.4-.85,6.37,3.41,6.37,3.41s2.29.61,6.17-3.14,1.25-8.56.56-9.75-2.9-4.17-3.62-3.94m21.31,37.82c-.45-.42-1.14.32-1.14.32L896,968.75a1.57,1.57,0,0,0-.34,1.88c.28.39,4.55,5.31,5,5.8s.91,0,.91,0,5.79-4.86,6.13-5.27-.22-1.14-.22-1.14-4.5-6-4.89-6.42M924,944.24a16.86,16.86,0,0,1-2.87-1.93c-1.42-1.59-2.46-3.66-7.16-4.22-5.6-.63-16.34,9.91-16.34,9.91-.8-1.21-3.93-2.37-2.13-9.12,2.34-8.8,10.78-19.52,11.74-21.75s-7.62,4.86-7.62,4.86a197.73,197.73,0,0,0-10.52,21.12c-3.52,8.73.42,13.19,2.36,14.34,13.5,8,31.47-9.76,32.41-10.57s1.4-2.24.13-2.64M899,948.88s7.56-5.77,10.14-6.18c4-.64,7.6,5.17,7.6,5.17s-10.47,8.52-17.74,1m-371,17s-6.59-3.55-7.16-3.71-.87.75-.87.75l-2.84,6.75a1.52,1.52,0,0,0,.49,1.84c.42.23,6.39,2.85,7,3.12a.62.62,0,0,0,.85-.4s3.13-6.89,3.26-7.41-.7-.94-.7-.94m283.84-57.06c-.22,2.39-1.54,9.33-2.93,15.93a48.35,48.35,0,0,1-2.64,8.64c-.81,1.73.41,1.24.41,1.24,6.17-4,9-17.17,10.62-26.58,1-5.37,2-9.51,2-10.07.19-1.5-7.07,6.85-7.49,10.84m-45.26-9.92a53.65,53.65,0,0,1,9.14-5.87c10.61-5.5,25.71-11.81,30.78-19.59,0,0,.87-1.14-1.29.23-1,.62-8.3,4.11-16.54,7.82-5.53,2.51-12.18,5.55-17.35,9.38-4.1,3.08-7.2,6.76-8.55,10,0,0-3.88,11.88-5.89,14.67s-6.72,7-19.47,8.28c0,0-25,2-39.65-.9-6-1.17-7.79-3.76-9-7.25s-.11-8.12-.11-8.12-.39-1.5-1.28.78-6.09,15.71-.69,20.5c2.85,2.52,5.76,5,28.07,5.41,15,.32,27-2.55,30.69-4.1,8.74-3.71,11-10.26,11-10.26s.75-.76.49.94c0,0-7.22,18.28,5.26,19.34,0,0,5.62-.8,9.48-10.2.47,3.35,2.06,6,6.2,6.63,6.15,1,7.41-6.41,10.68-7.41s7.82,3.79,7.82,3.79,1.34,0,3.76-5-2.61-7.13-4-9a4.78,4.78,0,0,1-.41-3.41c3.56-4.38,4.26-10.51,5.07-18.41.55-5.43,1.25-9.64,1.29-10.2,0-1.51-5.23,7.4-6.05,11.31-.52,2.5-.49,3.08-1.36,9.75a47.91,47.91,0,0,1-2,8.83,1.76,1.76,0,0,0-.17,1c-1.82,2-5.66,6.86-6.79,8.43-1.26,1.83-9.51,4.39-9.39-2.13.23-10.58,4.55-24,4.7-25.5s-.87-.26-.87-.26l-6.34,9.78s-1.87,10.34-2.25,16.1c-.57,2.57-2,7.08-5.64,7.28-3.85.25-8.09-2.85-4.47-14.81s5.13-17.86,5.13-17.86M645.49,939.79s-6.6-3.54-7.18-3.74-.87.8-.87.8l-2.86,6.71a1.54,1.54,0,0,0,.51,1.83c.41.25,6.38,2.89,7,3.15s.84-.44.84-.44,3.14-6.85,3.26-7.39-.68-.92-.68-.92M584,878.4c-.28-1.5-5,8.57-4.23,12.51.44,2.34,1.1,9.38,1.58,16.1a94.17,94.17,0,0,1-.16,10c-1.42,2.64-4,5.51-8.11,4.8,3.67-6.16,1.8-9.7.3-10.67-7-4.55-15.25,2.44-17.75,5.21s-.36,3.35-.36,3.35c3-2.08,6.51,0,9.52,2.49-2.31,1.58-7.39,4.18-10.57,7.19-8.08,7.66-6.63,13.53-12,22.53a41.5,41.5,0,0,1-10.13,11.29c-3.17,2.76-.73,1.92-.73,1.92,16.08-5.9,13.07-14.41,22.45-25.42,4.63-5.43,10.37-7.7,13.8-11.12.75-.79,1.43-1.53,2.05-2.21a4.86,4.86,0,0,0,.58.36c11.78,4.46,14.22-9.3,14.78-12.6,1.31-8,.39-19.45-.26-25.49-.55-5.42-.69-9.68-.79-10.23m87.24,28.2c-.93.62-6,6.33-10.3,5.52a13.16,13.16,0,0,1-5-1.81c-2.11-1.3-3.82-3.64-3.92-4.45-.18-1.58,1.39-2.84,2.65-3.46a6,6,0,0,1,5.69.6c2,1.39,3.88,1.11,4.55.43a3,3,0,0,0,.87-3.82c-.51-1.1-4.33-6.06-10.48-1.66s-10.92,13.32-10.87,14,.44,5.56,9.64,7.67c0,0-2.76,4.24-7.62,4.53-2.45.16-3.53-1.46-4.59-2.3-1.69-1.35-5.16,1-7,2.89-2.63,2.63-5.31,4.91-9.63,4.72-5-.23-6.75-2.84-7.41-5.15s1.42-8.54,1.66-9.27-1-.32-1.18,0-3.84,8.87-6.5,12.33-7,8.7-17.08,13.52c-2.25,1.08,1.51.74,1.51.74,4-.19,5-.75,8.49-1.14,4.18-.47,7.44-5.57,8.91-8.64.42-.93.81-.06.81-.06-.43,1.69.52,6.51,6.53,7.13,7.23.79,12.94-7.5,14.14-8.88,3.62-4.18,6.23,1.68,9.8.48,3.32-1.15,6.76-4.13,8.24-5.27,2.66-2,5.15-4.63,7.75-6.77a128.19,128.19,0,0,0,11.25-10.39c.83-.87-.05-2.12-1-1.49M860,911c1.52-.12,5.66-1.93,11.45-3.2a32.51,32.51,0,0,1,11.71-1c2.22.26,2.81.16,1.58-1.39a8.45,8.45,0,0,0-6.28-3.23,16.62,16.62,0,0,0-7.78,1.65s-1.74-5.07-5.68-4.58c-3,.39-3.26,2.36-2.78,2.36s7.16.71-1.67,7.51c-1.26,1-2.52,2-.55,1.84"/></g></g></svg>