<svg id="レイヤー_1" data-name="レイヤー 1" xmlns="http://www.w3.org/2000/svg" viewBox="0 0 392.27 123"><defs><style>.cls-1{fill:#80715d;}.cls-2{fill:#f18f00;}.cls-3{fill:#f0b500;}.cls-4{fill:#cdce00;}.cls-5{fill:#00a6aa;}</style></defs><title>アートボード 1</title><path class="cls-1" d="M249.55,16.94a6.4,6.4,0,0,1,4.87-.2l1.46-1.79c-3.49,0-4.62-1.69-3.8-2.84s2.2-.33,3.25.4l1.46-1.79c-1.82-1.23-3.7-1.38-5.44.8a2.57,2.57,0,0,0,.09,3.33,5.86,5.86,0,0,0-2.53,1.42ZM384.92,31.83H382.2V29.35h2.72Zm-58.08-18h-2.73V11.36h2.73Zm4.15,0h-2.72V11.36H331ZM212,31.83h-2.72V29.35H212ZM386.56,20.07c-1.56-2.74-3.41-4.72-6.93-4.72l-.19,1c5.54,1,2.83,4.44,7.51,8.19h-15.2v-15H369V22.91c0,2.47,1.11,3.82,2.77,3.82h20.46V24.55a8,8,0,0,1-5.66-4.48M227.29,24.55c-3.41,0-4.69-2.44-4.76-4.94-.08-2.87,2.76-3.81,7.06-2.57l.3-.82A13.62,13.62,0,0,0,225.08,15c-3.83,0-5.64,1.89-5.64,5a5.23,5.23,0,0,0,2.18,4.63h-6a2.74,2.74,0,0,1-2.93-3.07V18.73h-2.76v5.82h-6.1a2.74,2.74,0,0,1-2.93-3.07v-6.4h-2.76v9.47h-5c-1.38,0-1.24-.81-.71-1.57l-.74-.5c-1.76,1.88-1.42,4.25,1.72,4.25h7.47V24.55a3.34,3.34,0,0,0,3.31,2.18h8.48V24.55a3.33,3.33,0,0,0,3.3,2.18h14.61V24.55Zm131.93-9.8c-5.09,0-5.84,5.71-7.56,8.52a2.16,2.16,0,0,1-2.19,1.28h-5.6c1.66-1.57,3.88-5.47,2.19-7.37-1.53-1.74-4.25-1.72-6.07-1.9l-2.86,4.21a7.49,7.49,0,0,1,4.45,5.06H332.3V23.43c0-4.55-2.92-8.3-7-5.25-2.81,2.1-4.63,6.07-2.1,7.92a3.86,3.86,0,0,0,2.55.62h13.81a3.55,3.55,0,0,0,2.7-.76,3.59,3.59,0,0,0,2.71.76h5.6A3.49,3.49,0,0,0,353,26a6,6,0,0,0,1.41-2.64c-.26,2.25,4,3.07,6.45,3.32,2.22.23,2.35-1.23,2.35-2.18V21.48c0-3.5-.76-6.73-4-6.73m-29.93,9.8h-1.74c-4.08,0-3.58-3.94-1.3-5.72,2-1.57,3.07,1,3.07,4.23Zm10.82-5,1.35-2c3.78.36,3.18,3.48,1.36,5.46a6,6,0,0,0-2.71-3.49m20.29,4.75c-2.59-.33-4.38-1.08-5.53-2.35.33-1,.52-1.72.87-2.76.64-1.86,1.43-3.6,3-3.18,1.14.29,1.66,1.9,1.66,3.77Zm-203.07.28h-1.74c-4.07,0-3.59-3.95-1.3-5.71,2-1.57,3.08,1,3.08,4.23Zm10.29,2.2V24.55a3.34,3.34,0,0,0,3.31,2.18h7V9.52h-2.77v15h-4.57a2.74,2.74,0,0,1-2.93-3.07v-12h-2.76v15h-4.53V23.43c0-4.54-2.92-8.3-7-5.24-2.81,2.09-4.63,6.06-2.1,7.92a3.85,3.85,0,0,0,2.55.63Zm14.9-17.21V28.94c1.66,0,2.76-1.36,2.76-3.82V9.52ZM290.13,19.73v4.52c-2.58-.34-4.38-1.08-5.52-2.35.32-1,.52-1.72.87-2.75.63-1.86,1.42-3.6,3-3.18,1.15.29,1.65,1.9,1.65,3.76m-25,4.82a3.33,3.33,0,0,0,3.3,2.18h7V24.55a3.33,3.33,0,0,0,3.3,2.18h1.6A3.48,3.48,0,0,0,282.7,26a6,6,0,0,0,1.41-2.64c-.26,2.25,4,3.07,6.45,3.32,2.23.23,2.35-1.24,2.35-2.18a3.34,3.34,0,0,0,3.3,2.18h6.87V9.52h-2.77v15h-4.46a2.74,2.74,0,0,1-2.93-3.07c0-3.5-.76-6.73-4-6.73-5.09,0-5.85,5.72-7.56,8.52a2.16,2.16,0,0,1-2.19,1.29h-.89a2.74,2.74,0,0,1-2.93-3.07v-12h-2.77v15H268a2.74,2.74,0,0,1-2.92-3.07v-12h-2.76v15h-13.8c-4.07,0-3.41-3.28-1.45-5.55l-.7-.66c-3,2.49-4.76,5.92-2.23,7.77a3.82,3.82,0,0,0,2.54.63h18.39Zm42.59-15V28.94c1.67,0,2.77-1.36,2.77-3.82V9.52Z"/><path class="cls-1" d="M218.85,36.67V56.09c1.65,0,2.76-1.36,2.76-3.82V36.67Zm39.4,5.21c3.2,0,4,3.23,4,6.73v3.08c0,.94-.29,3-2.35,2.19-2.45-1-5.91-2.89-7.45-1.88-1,.68-.88,1.71-.88,3.91v5.25c0,2.46-1.11,3.82-2.77,3.82V54.33c0-2.5.91-3.68,2.07-4.45l.18-.11c1.46-3,2.58-7.9,7.26-7.9m1.17,9.51V46.87c0-1.86-.51-3.48-1.65-3.77-1.58-.41-2.37,1.34-3,3.2-.32.9-.74,2.26-1.06,3.25a27.46,27.46,0,0,1,5.71,1.85M166.1,59h-2.73V56.53h2.73Zm4.15,0h-2.73V56.53h2.73Zm31.41-15.54h-2.72V41h2.72Zm4.16,0h-2.73V41h2.73ZM187.88,41h-2.73V38.51h2.73ZM192,41h-2.72V38.51H192Zm-37.17,0h-2.73V38.51h2.73Zm23.74,2.48h-2.73V41h2.73ZM159,41H156.3V38.51H159Zm-1.7,10.7-1.74,0c-4.07,0-3.58-3.94-1.3-5.71,2-1.57,3.08,1,3.08,4.23Zm30.23-5.74c2.86-1.71,3.65,4,3.65,5.74-3.7-2-5.22-4.8-3.65-5.74M160.33,51.7V50.58c0-4.53-2.92-8.3-7-5.24-2.8,2.1-4.62,6.06-2.1,7.92a3.86,3.86,0,0,0,2.55.62h14.44V51.7a3.34,3.34,0,0,0,3.3,2.18h7.1V51.7a3.35,3.35,0,0,0,3.3,2.18h8.94c2.16,0,2.35-1.24,2.35-2.18a3.34,3.34,0,0,0,3.3,2.18h7.24V51.7a3.34,3.34,0,0,0,3.3,2.18h6.86V36.68h-2.76v15h-4.47a2.74,2.74,0,0,1-2.93-3.08V45.87H201V51.7h-4.84c-1.9,0-2.75-1.48-3-3-.31-2.09-1.25-5.38-4.24-5.38-1.71,0-4.23,1.1-3.65,4,.39,1.95,2.14,3.4,3.65,4.38h-7.38a2.74,2.74,0,0,1-2.93-3.08V45.87h-2.76V51.7h-4.71a2.74,2.74,0,0,1-2.93-3.08V45.87h-2.76V51.7Zm75.33-1.12c0-4.52-2.93-8.3-7-5.24-2.81,2.09-4.62,6.06-2.1,7.92a3.87,3.87,0,0,0,2.55.62h3.29c-.63,3.6-1.46,6.94-6.37,9.29l.27.82c4.17-1.24,8.07-3.21,9.08-10.11a24.64,24.64,0,0,0,.3-3.31m-3,1.11-1.73,0c-4.08,0-3.59-3.94-1.3-5.71,2-1.57,3.07,1,3.07,4.23Zm83.59-15v15h-4.57a2.74,2.74,0,0,1-2.93-3.07v-12H306v15h-7.36c1.67-1.57,3.88-5.47,2.19-7.38-1.53-1.72-4.24-1.72-6.07-1.89l-2.86,4.22a7.47,7.47,0,0,1,4.46,5.05H287a2.74,2.74,0,0,1-2.93-3.07v-12h-2.76v15h-4.53V50.57c0-4.53-2.93-8.3-7-5.24-2.81,2.1-4.63,6.06-2.11,7.92a3.86,3.86,0,0,0,2.55.63h3.29c-.63,3.6-1.46,6.95-6.37,9.29l.27.82c4.17-1.25,8.08-3,9.09-10.11h7.58V51.7a3.34,3.34,0,0,0,3.3,2.18h6.85a3.55,3.55,0,0,0,2.7-.77,3.61,3.61,0,0,0,2.71.77h9.06V51.3a2.38,2.38,0,0,0,1,2,3.83,3.83,0,0,0,2.55.63H319V36.67Zm-21.39,10,1.34-2c3.78.37,3.18,3.48,1.37,5.46a6,6,0,0,0-2.71-3.48m-21,5-1.75,0c-4.07,0-3.59-3.94-1.29-5.71,2-1.57,3.07,1,3.07,4.23Z"/><path class="cls-1" d="M150,73.17h2.33v6.48h0l4.81-6.48h2.35l-5.16,6.7,5.73,8h-2.78l-5-7.11h0v7.11H150Zm236.27,5.65h-1.76V77.72h1.76v-.94c0-1.87.44-3.84,3.84-3.84a9.86,9.86,0,0,1,2.15.24v1.46a4.31,4.31,0,0,0-1.89-.46c-1.74,0-1.95,1.25-1.95,2.33v1.21h2.86v1.11h-2.86v9h-2.16Zm-7.8,8.36c1.93,0,2.15-2.55,2.15-4.4s-.23-4.41-2.15-4.41-2.12,2.56-2.12,4.41.23,4.4,2.12,4.4M374,82.79c0-3.42,1.48-5.29,4.45-5.29S383,79.36,383,82.79s-1.5,5.29-4.48,5.29S374,86.21,374,82.79M363.59,88l-3.88-10.23h2.24l2.65,7.22h0L367,77.72h2l-5.21,14.66H362.1Zm-4.67,0a6.38,6.38,0,0,1-1.49.16c-2,0-3.18-.63-3.18-2.57V78.82h-1.61v-1.1h1.61V75.35l2.13-1.3v3.67h2.78v1.1h-2.78v5.83c0,1.48.16,2.2,1.54,2.2a2.72,2.72,0,0,0,1-.17ZM348,77.72h2.15V87.84H348ZM348,73.17h2.31V75.3H348Zm-2.9,6.55a4.51,4.51,0,0,0-2.55-1c-.67,0-1.43.3-1.43,1.06,0,1.83,4.62,2,4.62,5.22,0,2.18-1.7,3.08-3.84,3.08a8.23,8.23,0,0,1-2.71-.45v-2a5.08,5.08,0,0,0,2.8,1.06c1.23,0,1.74-.63,1.74-1.28,0-1.77-4.56-2.14-4.56-5,0-1.53,1-2.91,3.53-2.91a8,8,0,0,1,2.38.4Zm-12.71-2h2.14v2.58h0c.68-1.35,1.43-2.66,3.28-2.8v2.22c-2.06.07-3.33.77-3.33,3.49v4.63h-2.14Zm-4.63,2.94c0-.79-.27-2.27-1.87-2.27s-2,1.7-2,2.27Zm1.92,6.85a7.25,7.25,0,0,1-3,.58c-2.8,0-5-1.66-5-5.74,0-2.8,1.13-4.84,4.31-4.84s3.89,2.19,3.89,4.14h-6.06c0,2,.9,5.32,3.92,5.32a4.48,4.48,0,0,0,1.95-.43Zm-18.36-9.78h2.28l2.61,7.22h0l2.38-7.22h2L317,87.83h-1.86Zm-4.08,0h2.15V87.84H307.2Zm-.08-4.55h2.32V75.3h-2.32Zm-11.6,4.55h2.14v2.4h.05a4,4,0,0,1,3.54-2.62c1.79,0,2.55,1.48,2.55,2.94v7.39h-2.14V81.51c0-1.28-.2-2.42-1.29-2.42-2.12,0-2.72,3.32-2.72,4.57v4.17h-2.14Zm-3.25,4.91c0,2.68-.45,5.45-5,5.45s-5-2.77-5-5.45V73.17h2.34v9.46c0,2.34.17,4.17,2.64,4.17s2.63-1.84,2.63-4.17V73.17h2.34Zm-27.54-9.46h2.14v6.95h0a4,4,0,0,1,3.55-2.63c1.78,0,2.54,1.48,2.54,2.95v7.39h-2.15V81.51c0-1.29-.19-2.42-1.27-2.42-2.13,0-2.72,3.31-2.72,4.56v4.18h-2.14Zm-5.4,9.93c-.89.06-3.31.25-3.31,2.13,0,.91.53,1.51,1.23,1.51a2.31,2.31,0,0,0,2.08-2.45Zm0,3.33h0a3.2,3.2,0,0,1-2.85,1.65,2.61,2.61,0,0,1-2.76-2.53c0-3.13,4.31-3.27,5.65-3.34v-.9c0-1.1,0-2.93-1.42-2.93s-1.56,1-1.63,2.22H254c.11-1.51.7-3.11,3.89-3.11s3.57,1.85,3.57,3.82v6.52h-2.15ZM248.77,73.17h2.15V87.83h-2.15Zm-5.67,0h2.14V87.83H243.1Zm-5.57,12.26h0A4,4,0,0,1,234,88.08c-1.79,0-2.55-1.49-2.55-3V77.72h2.14v6.34c0,1.26.2,2.42,1.28,2.42,2.11,0,2.72-3.33,2.72-4.58V77.72h2.15V87.83h-2.17ZM223.9,86.71c1.76,0,2-2.26,2-3.92s-.17-4.06-2-4.06c-1.68,0-2,2.29-2,4.06s.32,3.92,2,3.92m2.1-.53h0a2.83,2.83,0,0,1-2.64,1.9c-2.9,0-3.8-2.39-3.8-5.29s1.13-5.29,3.8-5.29A2.76,2.76,0,0,1,226,79.13h0v-6h2.15V87.83H226Zm-12.82,1c1.73,0,2.16-2.3,2.16-4.36,0-1.78-.41-4.09-2.16-4.09s-2.09,2.18-2.09,4.09c0,2.56.32,4.34,2.09,4.36M211,79.13h0a3.17,3.17,0,0,1,2.82-1.63c2.73,0,3.81,2.29,3.81,5.32,0,3.73-1.83,5.26-4.49,5.26-4,0-4.32-2.65-4.32-5.26V73.17H211Zm-12.21,3H203l-2.05-6.79h0Zm1-8.91h2.42l4.91,14.66h-2.42l-1.34-4.36h-5.06L197,87.83h-2.07ZM182.74,86.6c1.87,0,2-2.15,2-3.82s-.26-3.93-2-3.93-2,2.19-2,3.82.34,3.93,2,3.93m4.25.94c0,2.84-.93,5.07-5,5.07a10.73,10.73,0,0,1-2.91-.4v-2.1a6.38,6.38,0,0,0,3.24,1.23c2.25,0,2.51-1.57,2.51-3.8V86.43h0a2.7,2.7,0,0,1-2.63,1.41c-2.68,0-3.8-2.18-3.8-5.17s.88-5.17,3.8-5.17a2.76,2.76,0,0,1,2.63,1.89h0V77.72H187Zm-19.48-9.83h2.15v2.4h0a4,4,0,0,1,3.55-2.62c1.78,0,2.55,1.48,2.55,2.94v7.39h-2.15V81.51c0-1.28-.19-2.42-1.27-2.42-2.12,0-2.71,3.32-2.71,4.57v4.17h-2.15Zm-5.57,0h2.14V87.84h-2.14Zm-.08-4.55h2.31V75.3h-2.31Z"/><path class="cls-1" d="M158.19,100.59a8.21,8.21,0,0,0-3.64-1c-1.29,0-2.21.73-2.21,1.85,0,3.08,6.91,3,6.91,7.59,0,3.08-2.38,4.28-5.33,4.28a13,13,0,0,1-3.73-.55V110.5a9,9,0,0,0,4.09,1.28c1.53,0,2.64-.63,2.64-2.11,0-3.36-6.9-3.15-6.9-7.71,0-2.38,1.76-3.76,4.79-3.76a19.64,19.64,0,0,1,3.39.38Zm196.13,12.59L350.44,103h2.23l2.65,7.23h.05l2.38-7.23h2l-5.2,14.67h-1.72Zm-9.9-1.33c1.86,0,2-2.15,2-3.83s-.24-3.93-2-3.93-2,2.19-2,3.82.35,3.93,2,3.93m4.24.94c0,2.84-.93,5.07-5,5.07a10.91,10.91,0,0,1-2.91-.4v-2.1a6.43,6.43,0,0,0,3.24,1.23c2.25,0,2.5-1.57,2.5-3.8v-1.1h0a2.74,2.74,0,0,1-2.64,1.39c-2.67,0-3.79-2.18-3.79-5.16s.88-5.18,3.79-5.18a2.79,2.79,0,0,1,2.64,1.89h0V103h2.15Zm-14.95-.36c1.92,0,2.15-2.56,2.15-4.4s-.24-4.4-2.15-4.4-2.13,2.54-2.13,4.4.24,4.4,2.13,4.4m-4.45-4.4c0-3.42,1.49-5.3,4.45-5.3s4.49,1.88,4.49,5.3-1.51,5.28-4.49,5.28-4.45-1.86-4.45-5.28m-4.85-9.61h2.14v14.66h-2.14Zm-7.17,14c1.92,0,2.14-2.56,2.14-4.4s-.23-4.4-2.14-4.4-2.13,2.54-2.13,4.4.24,4.4,2.13,4.4m-4.45-4.4c0-3.42,1.48-5.3,4.45-5.3s4.48,1.88,4.48,5.3-1.51,5.28-4.48,5.28-4.45-1.86-4.45-5.28M301.93,103h2.15v2.4h0a4,4,0,0,1,3.55-2.63c1.78,0,2.55,1.5,2.55,3v7.38h-2.15v-6.33c0-1.28-.19-2.43-1.27-2.43-2.13,0-2.72,3.31-2.72,4.57v4.19h-2.15Zm-11.57-4.54h2.14v6.95h0a4,4,0,0,1,3.55-2.63c1.78,0,2.55,1.5,2.55,3v7.39H296.5v-6.33c0-1.28-.19-2.43-1.27-2.43-2.13,0-2.73,3.31-2.73,4.57v4.18h-2.14Zm-2.17,14.39a7.85,7.85,0,0,1-2.7.5c-3.21,0-5.07-1.92-5.07-5.69,0-3,1.38-4.89,4.29-4.89,2.73,0,3.64,1.45,3.64,3.53h-2.25c0-1.21-.12-2.63-1.47-2.63s-1.87,1.45-1.87,3.27c0,2.47,1,5.29,3.63,5.29a5.08,5.08,0,0,0,1.81-.38Zm-11.67-6.91c0-.78-.27-2.27-1.86-2.27s-2,1.69-2,2.27Zm1.92,6.84a7.17,7.17,0,0,1-3,.57c-2.8,0-5-1.65-5-5.73,0-2.8,1.12-4.85,4.31-4.85s3.89,2.19,3.89,4.15h-6.06c0,2,.88,5.31,3.92,5.31a4.45,4.45,0,0,0,1.93-.43ZM264.38,99.82h-3.56v-1.4h9.44v1.4h-3.54v13.26h-2.34ZM248.82,112c1.77,0,2-2.26,2-3.93s-.17-4.06-2-4.06c-1.67,0-2,2.29-2,4.06s.32,3.93,2,3.93m2.1-.54h0a2.8,2.8,0,0,1-2.64,1.88c-2.9,0-3.79-2.37-3.79-5.28s1.12-5.3,3.79-5.3a2.73,2.73,0,0,1,2.64,1.64h0V98.42h2.15v14.65h-2.15ZM233.58,103h2.14v2.4h.05a4,4,0,0,1,3.56-2.63c1.78,0,2.55,1.5,2.55,3v7.38h-2.16v-6.33c0-1.28-.18-2.43-1.26-2.43-2.13,0-2.74,3.31-2.74,4.57v4.19h-2.14Zm-5.4,5.39c-.89.06-3.31.25-3.31,2.12,0,.92.54,1.51,1.24,1.51a2.29,2.29,0,0,0,2.07-2.44Zm0,3.34h0a3.23,3.23,0,0,1-2.84,1.62,2.6,2.6,0,0,1-2.76-2.52c0-3.12,4.31-3.28,5.64-3.33v-.89c0-1.11,0-2.94-1.42-2.94s-1.55,1-1.64,2.22h-2.24c.1-1.52.7-3.12,3.88-3.12s3.58,1.85,3.58,3.83v6.51h-2.15Zm-15.68-5.79c0-.78-.27-2.27-1.86-2.27s-2,1.69-2,2.27Zm1.91,6.84a7.16,7.16,0,0,1-3,.57c-2.8,0-5.05-1.65-5.05-5.73,0-2.8,1.13-4.85,4.31-4.85s3.89,2.19,3.89,4.15h-6.06c0,2,.9,5.31,3.93,5.31a4.43,4.43,0,0,0,1.93-.43Zm-9.43.07a7.89,7.89,0,0,1-2.7.5c-3.2,0-5.07-1.92-5.07-5.69,0-3,1.37-4.89,4.29-4.89,2.73,0,3.62,1.45,3.62,3.53h-2.24c0-1.21-.13-2.63-1.47-2.63s-1.88,1.45-1.88,3.27c0,2.47,1,5.29,3.65,5.29a5,5,0,0,0,1.8-.38ZM186.37,103h2.15v2.4h0a4,4,0,0,1,3.55-2.63c1.78,0,2.55,1.5,2.55,3v7.38h-2.15v-6.33c0-1.28-.19-2.43-1.27-2.43-2.13,0-2.72,3.31-2.72,4.57v4.19h-2.15Zm-4.63,2.94c0-.78-.28-2.27-1.86-2.27s-2,1.69-2,2.27Zm1.92,6.84a7.25,7.25,0,0,1-3,.57c-2.8,0-5.05-1.65-5.05-5.73,0-2.8,1.13-4.85,4.31-4.85s3.89,2.19,3.89,4.15h-6c0,2,.89,5.31,3.93,5.31a4.55,4.55,0,0,0,1.94-.43ZM170.83,103H173v10.12h-2.14Zm-.09-4.54h2.32v2.13h-2.32Zm-2.19,14.39a7.86,7.86,0,0,1-2.7.5c-3.2,0-5.07-1.92-5.07-5.69,0-3,1.38-4.89,4.29-4.89,2.72,0,3.63,1.45,3.63,3.53h-2.25c0-1.21-.13-2.63-1.47-2.63s-1.86,1.45-1.86,3.27c0,2.47,1,5.29,3.63,5.29a5,5,0,0,0,1.8-.38Z"/><path class="cls-2" d="M77.81,72.65a15.59,15.59,0,0,0,2.64-9.38,20.62,20.62,0,0,0-.88-6.14,9.69,9.69,0,0,0-3.27,7.12,27.75,27.75,0,0,0,1.51,8.41"/><path class="cls-2" d="M100,50.46a56.39,56.39,0,0,1,.91,10.1c0,12.54-2.44,21.51-6.17,27.93a18.47,18.47,0,0,0,1.92.12c17.55,0,21.36-16.33,21.36-23.43,0-11.37-11.63-14.42-18-14.72"/><path class="cls-2" d="M82.33,63.27c0,4.77-1.33,8.53-3.79,11.36A29.37,29.37,0,0,0,81,79.44c3.44-4,5.2-9.64,5.2-17.07a26.48,26.48,0,0,0-1.44-8.69,22.14,22.14,0,0,0-3.66,2.13,22.52,22.52,0,0,1,1.21,7.46"/><path class="cls-2" d="M88.42,62.37c0,9-2.43,15-6.09,18.92a21.25,21.25,0,0,0,3.14,3.24c3.87-4.86,6.45-12.17,6.45-23.07a38.15,38.15,0,0,0-1.3-9.86,36.16,36.16,0,0,0-3.78,1.2,28.94,28.94,0,0,1,1.59,9.56"/><path class="cls-2" d="M94.69,61.46c0,11.66-2.84,19.46-7,24.68a17,17,0,0,0,3.78,1.69c3.81-6.09,6.24-14.84,6.24-27.26a55.85,55.85,0,0,0-1-10c-1.08.1-2.25.25-3.48.48a40,40,0,0,1,1.42,10.45"/><path class="cls-3" d="M59.59,35.11c9.74,0,17.77,3.7,22.87,9.87a26.91,26.91,0,0,0,2.68-4.54c-4.63-5.8-11.71-9.68-21.5-9.68a72.73,72.73,0,0,0-23.1,4.43,9.45,9.45,0,0,0,1,3,55.7,55.7,0,0,1,18.07-3.1"/><path class="cls-3" d="M87.74,27.67c-.68-8.81-5.33-23.31-21.53-23.31-12.53,0-20.08,11.83-23.54,20.79A91.68,91.68,0,0,1,67.7,21c8.49,0,15.05,2.6,20,6.71"/><path class="cls-3" d="M45.59,43.15a44.54,44.54,0,0,1,10-1c5.48,0,15.89,1,22,7.6a18.46,18.46,0,0,0,3.45-3c-4.69-5.89-12.22-9.44-21.4-9.44A54.53,54.53,0,0,0,42.7,40.07a20.32,20.32,0,0,0,2.89,3.08"/><path class="cls-3" d="M75.8,50.71C70.1,44.86,60.6,44,55.57,44a44.44,44.44,0,0,0-8.07.7c6.22,4.58,15.13,7.72,20.9,7.72a16.47,16.47,0,0,0,7.39-1.69"/><path class="cls-3" d="M63.64,28c10.1,0,17.57,3.91,22.66,9.73a26.86,26.86,0,0,0,1.46-5.9c-4.44-4.5-10.82-7.69-20.06-7.69a90.3,90.3,0,0,0-26.29,4.79,31.05,31.05,0,0,0-.78,3.25,73.1,73.1,0,0,1,23-4.17"/><path class="cls-4" d="M21.41,52.44c0-7.32,4.67-12.67,11.09-16.48a13,13,0,0,0-2.94-1.47c-6,3.93-10.25,9.15-10.25,15.93,0,6,2.23,13.78,6.23,21.4a8,8,0,0,0,1.91-.38c-3.85-6.75-6-13.65-6-19"/><path class="cls-4" d="M26.64,54.47c0-6.33,4.09-10.87,9.73-14a11.25,11.25,0,0,0-1.66-2.64c-6.05,3.36-10.54,8.07-10.54,14.57,0,5,2,11.46,5.64,17.77a11,11,0,0,0,1.65-1.48c-3.09-5.08-4.83-10.25-4.83-14.27"/><path class="cls-4" d="M25.34,33.62c-.81-.08-1.57-.11-2.25-.11C15.74,33.52,0,39.59,0,50.78c0,12,13.34,19.42,22,20.85-3.78-7.6-5.87-15.21-5.87-21.21,0-7,3.69-12.54,9.19-16.79"/><path class="cls-4" d="M31.63,56.49c0-4.21,2.2-7.7,6.09-10.18a17.76,17.76,0,0,0-.6-3.78c-4.85,2.73-8.28,6.61-8.28,11.93,0,3.53,1.43,8,4,12.47a20.4,20.4,0,0,0,1.35-2.49,16.93,16.93,0,0,1-2.56-8"/><path class="cls-4" d="M33.51,56.49a13.87,13.87,0,0,0,1.58,5.79,50.23,50.23,0,0,0,2.69-13.74,9.79,9.79,0,0,0-4.28,7.95"/><path class="cls-5" d="M61.61,80.65A31.58,31.58,0,0,1,40.24,72c-1,.39-1.95.83-2.9,1.3,6.07,7.1,15,12.9,25.67,12.9a27.76,27.76,0,0,0,12.88-2.7,18.33,18.33,0,0,0-2.71-4.93,28.48,28.48,0,0,1-11.57,2.13"/><path class="cls-5" d="M27.19,80.38c-3.71,3.7-6.12,7.95-6.12,12.11,0,16.27,25.34,25.44,35.15,25.44,11.62,0,17.06-7.37,19.42-15.18a41.1,41.1,0,0,1-9.91,1.17c-16.22,0-29.74-10.76-38.55-23.54"/><path class="cls-5" d="M52.28,69.39a31.65,31.65,0,0,0-10.12,1.85,29.72,29.72,0,0,0,19.45,7.53A27.18,27.18,0,0,0,71.88,77c-6.14-6.38-15.82-7.63-19.6-7.63"/><path class="cls-5" d="M63,88.36c-11.49,0-21.1-6.37-27.57-14.09-.74.41-1.47.83-2.17,1.28,7.14,9.71,18,17.87,31.12,17.87a31.48,31.48,0,0,0,12.84-2.5,23.63,23.63,0,0,0-.67-5.33A30.89,30.89,0,0,1,63,88.36"/><path class="cls-5" d="M64.38,96.19c-14,0-25.68-8.74-33.32-19.13-.56.42-1.08.86-1.61,1.3,8.24,12.14,21,22.42,36.28,22.42a37.23,37.23,0,0,0,10.75-1.5,40.88,40.88,0,0,0,.68-5.36,35.22,35.22,0,0,1-12.78,2.28"/></svg>