<svg width="29" height="26" viewBox="0 0 29 26" fill="none" xmlns="http://www.w3.org/2000/svg">
<path d="M1.66683 11.3332H5.66683C6.02045 11.3332 6.35959 11.4737 6.60964 11.7238C6.85969 11.9738 7.00016 12.3129 7.00016 12.6666V24.6666C7.00016 25.0202 6.85969 25.3593 6.60964 25.6094C6.35959 25.8594 6.02045 25.9999 5.66683 25.9999H1.66683C1.31321 25.9999 0.974069 25.8594 0.72402 25.6094C0.473972 25.3593 0.333496 25.0202 0.333496 24.6666V12.6666C0.333496 12.3129 0.473972 11.9738 0.72402 11.7238C0.974069 11.4737 1.31321 11.3332 1.66683 11.3332ZM1.66683 12.6666V24.6666H5.66683V12.6666H1.66683ZM22.6215 23.3666L26.6228 16.6999C26.8628 16.2999 27.0002 15.8332 27.0002 15.3332V13.9999C27.0002 13.2927 26.7192 12.6144 26.2191 12.1143C25.719 11.6142 25.0407 11.3332 24.3335 11.3332H16.8535L18.7962 4.0799L18.8028 4.0559C18.8636 3.82991 18.8637 3.59191 18.8034 3.36582C18.743 3.13973 18.6242 2.93352 18.4588 2.7679L10.4468 10.7799C10.1989 11.0275 10.0024 11.3216 9.86852 11.6454C9.73466 11.9692 9.66612 12.3162 9.66683 12.6666V21.9999C9.66683 22.7071 9.94778 23.3854 10.4479 23.8855C10.948 24.3856 11.6263 24.6666 12.3335 24.6666H20.3335C21.3068 24.6666 22.1575 24.1466 22.6215 23.3666ZM28.3335 15.3332C28.3335 16.1252 28.1042 16.8626 27.7068 17.4826L23.8322 23.9399C23.4859 24.5643 22.9788 25.0846 22.3636 25.4468C21.7484 25.809 21.0474 26 20.3335 25.9999H12.3335C11.2726 25.9999 10.2552 25.5785 9.50507 24.8283C8.75492 24.0782 8.3335 23.0608 8.3335 21.9999V12.6666C8.3335 11.5626 8.78016 10.5639 9.50283 9.8399L18.4588 0.882568L19.4015 1.82524C19.7388 2.16256 19.9795 2.58421 20.0984 3.04621C20.2173 3.5082 20.2101 3.99364 20.0775 4.4519L18.5908 9.9999H24.3335C25.3944 9.9999 26.4118 10.4213 27.1619 11.1715C27.9121 11.9216 28.3335 12.939 28.3335 13.9999V15.3332Z" fill="#2A6AFF"/>
</svg>
